<svg xmlns="http://www.w3.org/2000/svg" xmlns:xlink="http://www.w3.org/1999/xlink" width="735" height="167.317" viewBox="0 0 735 167.317">
  <defs>
    <clipPath id="clip-path">
      <rect id="Rectángulo_300820" data-name="Rectángulo 300820" width="115.645" height="163.478" fill="none"/>
    </clipPath>
    <clipPath id="clip-path-2">
      <rect id="Rectángulo_300819" data-name="Rectángulo 300819" width="112.009" height="167.318" fill="none"/>
    </clipPath>
    <clipPath id="clip-path-3">
      <rect id="Rectángulo_300821" data-name="Rectángulo 300821" width="109.799" height="163.478" fill="none"/>
    </clipPath>
  </defs>
  <g id="Grupo_886488" data-name="Grupo 886488" transform="translate(-685 -11710.146)">
    <g id="Grupo_886484" data-name="Grupo 886484" transform="translate(-8.207 2.628)">
      <g id="Grupo_886485" data-name="Grupo 886485">
        <path id="Trazado_601570" data-name="Trazado 601570" d="M2518.363,167.931V18.755h137.873c4.854,0,8.791,4.257,8.791,9.508V158.422c0,5.251-3.936,9.508-8.791,9.508Z" transform="translate(-1510.655 11694.912)" fill="#e8e8e8"/>
        <g id="Grupo_886125" data-name="Grupo 886125" transform="translate(930.128 11707.518)" style="mix-blend-mode: multiply;isolation: isolate">
          <g id="Grupo_886124" data-name="Grupo 886124">
            <g id="Grupo_886123" data-name="Grupo 886123" clip-path="url(#clip-path)">
              <path id="Trazado_601571" data-name="Trazado 601571" d="M2369.731,119.624V68.469l-34.865,51.155Zm5.1-98.264h12.753a10.574,10.574,0,0,1,10.573,10.574v87.69h3.019a10.574,10.574,0,0,1,10.574,10.574v5.727a10.574,10.574,0,0,1-10.574,10.574h-3.019v20.763a10.574,10.574,0,0,1-10.573,10.574H2380.3a10.574,10.574,0,0,1-10.574-10.574V146.5h-56.042a10.574,10.574,0,0,1-10.574-10.574V122.849a10.571,10.571,0,0,1,1.8-5.9l61.146-90.915a10.574,10.574,0,0,1,8.774-4.673" transform="translate(-2296.11 -14.357)" fill="#fff"/>
              <path id="Trazado_601572" data-name="Trazado 601572" d="M2368.714,118.607V67.452l-34.865,51.155Zm4.966-98.264h13.149a10.316,10.316,0,0,1,10.315,10.316v87.948h3.278a10.315,10.315,0,0,1,10.315,10.316v6.243a10.315,10.315,0,0,1-10.315,10.316h-3.278V166.5a10.316,10.316,0,0,1-10.315,10.316h-7.8a10.315,10.315,0,0,1-10.315-10.316V145.481h-56.3a10.316,10.316,0,0,1-10.316-10.316V121.753a10.315,10.315,0,0,1,1.756-5.757L2365.121,24.9a10.314,10.314,0,0,1,8.559-4.559" transform="translate(-2295.427 -13.673)" fill="#fafafa"/>
              <path id="Trazado_601573" data-name="Trazado 601573" d="M2367.7,117.59V66.435l-34.865,51.155Zm4.829-98.264h13.544a10.057,10.057,0,0,1,10.058,10.057V117.59h3.535a10.057,10.057,0,0,1,10.057,10.057v6.76a10.057,10.057,0,0,1-10.057,10.058h-3.535v21.279a10.057,10.057,0,0,1-10.058,10.057h-8.316a10.057,10.057,0,0,1-10.057-10.057V144.465h-56.558a10.057,10.057,0,0,1-10.058-10.058v-13.75a10.054,10.054,0,0,1,1.712-5.613l61.387-91.274a10.057,10.057,0,0,1,8.346-4.445" transform="translate(-2294.743 -12.989)" fill="#f5f5f5"/>
              <path id="Trazado_601574" data-name="Trazado 601574" d="M2366.68,116.573V65.418l-34.864,51.155Zm4.692-98.264h13.94a9.8,9.8,0,0,1,9.8,9.8v88.465h3.794a9.8,9.8,0,0,1,9.8,9.8v7.277a9.8,9.8,0,0,1-9.8,9.8h-3.794v21.537a9.8,9.8,0,0,1-9.8,9.8h-8.833a9.8,9.8,0,0,1-9.8-9.8V143.447h-56.817a9.8,9.8,0,0,1-9.8-9.8V119.561a9.8,9.8,0,0,1,1.668-5.469l61.508-91.453a9.8,9.8,0,0,1,8.131-4.33" transform="translate(-2294.06 -12.306)" fill="#f0f0f0"/>
              <path id="Trazado_601575" data-name="Trazado 601575" d="M2365.662,115.556V64.4L2330.8,115.556Zm4.554-98.264h14.336a9.541,9.541,0,0,1,9.541,9.541v88.723h4.052a9.541,9.541,0,0,1,9.541,9.541v7.793a9.541,9.541,0,0,1-9.541,9.541h-4.052v21.8a9.541,9.541,0,0,1-9.541,9.541h-9.35a9.541,9.541,0,0,1-9.541-9.541v-21.8h-57.075a9.541,9.541,0,0,1-9.541-9.541V118.466a9.544,9.544,0,0,1,1.624-5.325L2362.3,21.508a9.542,9.542,0,0,1,7.917-4.216" transform="translate(-2293.375 -11.622)" fill="#ececec"/>
              <path id="Trazado_601576" data-name="Trazado 601576" d="M2364.646,114.538V63.383l-34.865,51.155Zm4.417-98.264h14.731a9.283,9.283,0,0,1,9.283,9.283v88.981h4.31a9.282,9.282,0,0,1,9.282,9.283v8.309a9.282,9.282,0,0,1-9.282,9.283h-4.31v22.054a9.283,9.283,0,0,1-9.283,9.283h-9.865a9.283,9.283,0,0,1-9.283-9.283V141.413h-57.333a9.283,9.283,0,0,1-9.283-9.283V117.369a9.28,9.28,0,0,1,1.581-5.18l61.75-91.813a9.282,9.282,0,0,1,7.7-4.1" transform="translate(-2292.692 -10.938)" fill="#e7e7e7"/>
              <path id="Trazado_601577" data-name="Trazado 601577" d="M2363.628,113.521V62.366l-34.865,51.155Zm4.279-98.264h15.127a9.025,9.025,0,0,1,9.025,9.024v89.239h4.568a9.024,9.024,0,0,1,9.024,9.024v8.826a9.024,9.024,0,0,1-9.024,9.024h-4.568v22.312a9.025,9.025,0,0,1-9.025,9.024h-10.382a9.024,9.024,0,0,1-9.024-9.024V140.4h-57.592a9.024,9.024,0,0,1-9.024-9.024v-15.1a9.024,9.024,0,0,1,1.536-5.036l61.871-91.992a9.025,9.025,0,0,1,7.488-3.988" transform="translate(-2292.008 -10.255)" fill="#e2e2e2"/>
              <path id="Trazado_601578" data-name="Trazado 601578" d="M2362.611,112.5V61.349L2327.747,112.5Zm4.142-98.264h15.523a8.766,8.766,0,0,1,8.767,8.766v89.5h4.827a8.766,8.766,0,0,1,8.766,8.766v9.342a8.766,8.766,0,0,1-8.766,8.766h-4.827v22.57a8.766,8.766,0,0,1-8.767,8.766h-10.9a8.766,8.766,0,0,1-8.766-8.766v-22.57h-57.85a8.766,8.766,0,0,1-8.766-8.766V115.178a8.765,8.765,0,0,1,1.492-4.892l61.991-92.172a8.766,8.766,0,0,1,7.274-3.874" transform="translate(-2291.325 -9.571)" fill="#ddd"/>
              <path id="Trazado_601579" data-name="Trazado 601579" d="M2361.594,111.487V60.332l-34.865,51.155Zm4-98.264h15.919a8.508,8.508,0,0,1,8.508,8.508v89.756h5.085a8.508,8.508,0,0,1,8.508,8.508v9.859a8.508,8.508,0,0,1-8.508,8.508h-5.085V161.19a8.508,8.508,0,0,1-8.508,8.508H2370.1a8.508,8.508,0,0,1-8.508-8.508V138.361h-58.108a8.508,8.508,0,0,1-8.508-8.508V114.082a8.51,8.51,0,0,1,1.448-4.748l62.112-92.351a8.509,8.509,0,0,1,7.06-3.76" transform="translate(-2290.641 -8.888)" fill="#d8d8d8"/>
              <path id="Trazado_601580" data-name="Trazado 601580" d="M2360.576,110.47V59.315l-34.864,51.155Zm3.866-98.264h16.315a8.249,8.249,0,0,1,8.249,8.25V110.47h5.344a8.25,8.25,0,0,1,8.25,8.25v10.375a8.25,8.25,0,0,1-8.25,8.25h-5.344v23.087a8.249,8.249,0,0,1-8.249,8.25h-11.932a8.25,8.25,0,0,1-8.25-8.25V137.344H2302.21a8.25,8.25,0,0,1-8.25-8.25V112.986a8.25,8.25,0,0,1,1.4-4.6l62.233-92.53a8.25,8.25,0,0,1,6.845-3.646" transform="translate(-2289.957 -8.204)" fill="#d3d3d3"/>
              <path id="Trazado_601581" data-name="Trazado 601581" d="M2359.56,109.453V58.3L2324.7,109.453Zm3.729-98.264H2380a7.991,7.991,0,0,1,7.992,7.991v90.272h5.6a7.992,7.992,0,0,1,7.992,7.991v10.892a7.992,7.992,0,0,1-7.992,7.991h-5.6v23.345a7.992,7.992,0,0,1-7.992,7.992h-12.448a7.992,7.992,0,0,1-7.991-7.992V136.327h-58.625a7.991,7.991,0,0,1-7.991-7.991V111.89a7.991,7.991,0,0,1,1.36-4.46l62.353-92.71a7.992,7.992,0,0,1,6.631-3.532" transform="translate(-2289.274 -7.52)" fill="#cecece"/>
              <path id="Trazado_601582" data-name="Trazado 601582" d="M2358.542,108.436V57.281l-34.865,51.155Zm3.592-98.264h17.106a7.733,7.733,0,0,1,7.733,7.733v90.531h5.86a7.733,7.733,0,0,1,7.733,7.733v11.408a7.733,7.733,0,0,1-7.733,7.733h-5.86v23.6a7.733,7.733,0,0,1-7.733,7.733h-12.965a7.733,7.733,0,0,1-7.733-7.733v-23.6h-58.883a7.733,7.733,0,0,1-7.733-7.733V110.795a7.732,7.732,0,0,1,1.316-4.316l62.474-92.889a7.732,7.732,0,0,1,6.417-3.417" transform="translate(-2288.59 -6.837)" fill="#cacaca"/>
              <path id="Trazado_601583" data-name="Trazado 601583" d="M2357.525,107.418V56.263l-34.865,51.155Zm3.454-98.264h17.5a7.475,7.475,0,0,1,7.475,7.475v90.789h6.118a7.475,7.475,0,0,1,7.474,7.475v11.925a7.475,7.475,0,0,1-7.474,7.475h-6.118v23.862a7.475,7.475,0,0,1-7.475,7.475H2365a7.475,7.475,0,0,1-7.475-7.475V134.292h-59.141a7.475,7.475,0,0,1-7.475-7.475V109.7a7.475,7.475,0,0,1,1.272-4.172l62.595-93.069a7.474,7.474,0,0,1,6.2-3.3" transform="translate(-2287.906 -6.153)" fill="#c5c5c5"/>
              <path id="Trazado_601584" data-name="Trazado 601584" d="M2356.508,106.4V55.246L2321.643,106.4Zm3.317-98.264h17.9a7.216,7.216,0,0,1,7.217,7.217V106.4h6.377a7.216,7.216,0,0,1,7.216,7.217v12.441a7.216,7.216,0,0,1-7.216,7.217h-6.377V157.4a7.217,7.217,0,0,1-7.217,7.217h-14a7.217,7.217,0,0,1-7.217-7.217v-24.12h-59.4a7.217,7.217,0,0,1-7.217-7.217V108.6a7.217,7.217,0,0,1,1.228-4.027l62.715-93.248a7.217,7.217,0,0,1,5.989-3.189" transform="translate(-2287.223 -5.469)" fill="silver"/>
              <path id="Trazado_601585" data-name="Trazado 601585" d="M2355.491,105.384V54.229l-34.864,51.155ZM2358.67,7.12h18.294a6.959,6.959,0,0,1,6.959,6.958v91.305h6.635a6.959,6.959,0,0,1,6.958,6.958V125.3a6.958,6.958,0,0,1-6.958,6.958h-6.635v24.378a6.959,6.959,0,0,1-6.959,6.958h-14.514a6.958,6.958,0,0,1-6.958-6.958V132.258h-59.657a6.958,6.958,0,0,1-6.958-6.958V107.506a6.956,6.956,0,0,1,1.184-3.883L2352.9,10.2a6.958,6.958,0,0,1,5.774-3.075" transform="translate(-2286.539 -4.786)" fill="#bbb"/>
              <path id="Trazado_601586" data-name="Trazado 601586" d="M2354.473,104.367V53.212l-34.864,51.155ZM2357.515,6.1h18.69a6.7,6.7,0,0,1,6.7,6.7v91.564h6.894a6.7,6.7,0,0,1,6.7,6.7v13.474a6.7,6.7,0,0,1-6.7,6.7H2382.9v24.637a6.7,6.7,0,0,1-6.7,6.7h-15.031a6.7,6.7,0,0,1-6.7-6.7V131.241h-59.916a6.7,6.7,0,0,1-6.7-6.7V106.41a6.7,6.7,0,0,1,1.141-3.739l62.957-93.607a6.7,6.7,0,0,1,5.56-2.961" transform="translate(-2285.855 -4.102)" fill="#b6b6b6"/>
              <path id="Trazado_601587" data-name="Trazado 601587" d="M2353.458,103.35V52.195l-34.865,51.155Zm2.9-98.264h19.085a6.442,6.442,0,0,1,6.442,6.442V103.35h7.151a6.442,6.442,0,0,1,6.442,6.442v13.991a6.442,6.442,0,0,1-6.442,6.442h-7.151v24.895a6.442,6.442,0,0,1-6.442,6.442H2359.9a6.442,6.442,0,0,1-6.441-6.442V130.224h-60.174a6.442,6.442,0,0,1-6.442-6.442V105.314a6.44,6.44,0,0,1,1.1-3.595l63.078-93.787a6.442,6.442,0,0,1,5.346-2.847" transform="translate(-2285.172 -3.418)" fill="#b1b1b1"/>
              <path id="Trazado_601588" data-name="Trazado 601588" d="M2352.439,102.332V51.177l-34.865,51.155Zm2.766-98.264h19.481a6.184,6.184,0,0,1,6.184,6.184v92.08h7.409a6.184,6.184,0,0,1,6.184,6.184v14.507a6.184,6.184,0,0,1-6.184,6.183h-7.409v25.153a6.184,6.184,0,0,1-6.184,6.184h-16.064a6.184,6.184,0,0,1-6.184-6.184V129.206h-60.432a6.184,6.184,0,0,1-6.184-6.183V104.218a6.186,6.186,0,0,1,1.052-3.451l63.2-93.966a6.184,6.184,0,0,1,5.131-2.733" transform="translate(-2284.488 -2.734)" fill="#acacac"/>
              <path id="Trazado_601589" data-name="Trazado 601589" d="M2351.422,101.315V50.16l-34.865,51.155Zm2.629-98.264h19.877a5.926,5.926,0,0,1,5.926,5.925v92.338h7.667a5.926,5.926,0,0,1,5.926,5.925v15.024a5.926,5.926,0,0,1-5.926,5.925h-7.667V153.6a5.926,5.926,0,0,1-5.926,5.925h-16.58a5.925,5.925,0,0,1-5.925-5.925V128.189h-60.691a5.925,5.925,0,0,1-5.925-5.925V103.122a5.924,5.924,0,0,1,1.009-3.307L2349.134,5.67a5.925,5.925,0,0,1,4.917-2.619" transform="translate(-2283.804 -2.051)" fill="#a8a8a8"/>
              <path id="Trazado_601590" data-name="Trazado 601590" d="M2350.405,100.3V49.143L2315.541,100.3ZM2352.9,2.034h20.272a5.668,5.668,0,0,1,5.667,5.667v92.6h7.926a5.667,5.667,0,0,1,5.667,5.667v15.54a5.667,5.667,0,0,1-5.667,5.667h-7.926v25.669a5.667,5.667,0,0,1-5.667,5.667h-17.1a5.668,5.668,0,0,1-5.667-5.667V127.172h-60.948a5.667,5.667,0,0,1-5.667-5.667V102.026a5.665,5.665,0,0,1,.965-3.163l63.44-94.325a5.669,5.669,0,0,1,4.7-2.5" transform="translate(-2283.121 -1.367)" fill="#a3a3a3"/>
              <path id="Trazado_601591" data-name="Trazado 601591" d="M2349.388,99.281V48.126l-34.865,51.155Zm2.353-98.264h20.669a5.409,5.409,0,0,1,5.409,5.409V99.281H2386a5.409,5.409,0,0,1,5.409,5.409v16.057a5.409,5.409,0,0,1-5.409,5.409h-8.184v25.928a5.409,5.409,0,0,1-5.409,5.409H2354.8a5.409,5.409,0,0,1-5.409-5.409V126.155H2288.18a5.409,5.409,0,0,1-5.409-5.409V100.931a5.407,5.407,0,0,1,.921-3.019l63.561-94.5a5.408,5.408,0,0,1,4.488-2.39" transform="translate(-2282.437 -0.684)" fill="#9e9e9e"/>
              <path id="Trazado_601592" data-name="Trazado 601592" d="M2348.371,98.264V47.109l-34.865,51.155ZM2350.587,0h21.064a5.151,5.151,0,0,1,5.151,5.151V98.264h8.442a5.151,5.151,0,0,1,5.151,5.151v16.573a5.151,5.151,0,0,1-5.151,5.151H2376.8v26.185a5.151,5.151,0,0,1-5.151,5.151h-18.13a5.151,5.151,0,0,1-5.151-5.151V125.139h-61.465a5.151,5.151,0,0,1-5.151-5.151V99.835a5.151,5.151,0,0,1,.877-2.874l63.681-94.684A5.15,5.15,0,0,1,2350.587,0" transform="translate(-2281.753)" fill="#999"/>
            </g>
          </g>
        </g>
        <path id="Trazado_601593" data-name="Trazado 601593" d="M2347.844,0H2376.8V98.264H2390.4v26.875H2376.8v31.337h-28.431V125.138h-66.616V98.264Zm.527,98.264V47.109l-34.865,51.155Z" transform="translate(-1351.625 11707.518)" fill="#e8e8e8"/>
        <path id="Trazado_601621" data-name="Trazado 601621" d="M2969.265,175.917l-16.055,23.058,16.055,23.058,16.055-23.058Z" transform="translate(-1814.895 11589.279)" fill="#e8e8e8"/>
        <text id="Apoya_la_formación_de_equipos_productivos." data-name="Apoya la formación de equipos productivos." transform="translate(1045.773 11744.803)" font-size="16" font-family="Roboto-Regular, Roboto"><tspan x="0" y="17">Apoya la </tspan><tspan x="0" y="41">formación de </tspan><tspan x="0" y="65">equipos </tspan><tspan x="0" y="89">productivos.</tspan></text>
      </g>
      <g id="Grupo_886483" data-name="Grupo 886483">
        <path id="Trazado_601546" data-name="Trazado 601546" d="M1741.78,167.931V93.693l-3.072-9.493,3.072-10.831V18.755h129.047c4.921,0,8.911,4.547,8.911,10.155V157.775c0,5.609-3.989,10.155-8.911,10.155Z" transform="translate(-971.629 11694.912)" fill="#e1efe3"/>
        <g id="Grupo_886122" data-name="Grupo 886122" transform="translate(693.521 11707.518)" style="mix-blend-mode: multiply;isolation: isolate">
          <g id="Grupo_886121" data-name="Grupo 886121">
            <g id="Grupo_886120" data-name="Grupo 886120" clip-path="url(#clip-path-2)">
              <path id="Trazado_601547" data-name="Trazado 601547" d="M1565.73,62.866h-13.218a7.781,7.781,0,0,1-7.457-10.068,42.407,42.407,0,0,1,9.972-17.118q13.9-14.32,34.968-14.32,18.78,0,31.492,11.933T1634.2,61.62a33,33,0,0,1-5.551,18.573q-5.552,8.405-16.135,13.593,13.9,4.151,21.738,14.475a39.113,39.113,0,0,1,7.834,24.333q0,20.545-15.149,34.812t-38.6,14.267q-22.206,0-36.213-13.438-11.083-10.63-14.242-27.334a7.8,7.8,0,0,1,7.662-9.242h13.718a7.75,7.75,0,0,1,7.463,5.535,25.285,25.285,0,0,0,7.033,12.053q6.382,5.759,16.135,5.759a23.152,23.152,0,0,0,16.861-6.537,21.481,21.481,0,0,0,6.693-15.98q0-10.375-9.028-17.536-7.092-5.625-19.119-6.958a7.834,7.834,0,0,1-6.926-7.808V89.621a7.815,7.815,0,0,1,6.6-7.7,34.031,34.031,0,0,0,9.012-2.5,19.336,19.336,0,0,0,7.99-6.693,15.931,15.931,0,0,0,2.854-9.027,13.573,13.573,0,0,0-4.358-10.324q-4.358-4.1-11.414-4.1a18.484,18.484,0,0,0-11.31,3.787,19.086,19.086,0,0,0-5.285,5.927,7.73,7.73,0,0,1-6.737,3.879" transform="translate(-1530.076 -14.357)" fill="#fff"/>
              <path id="Trazado_601548" data-name="Trazado 601548" d="M1564.772,61.849h-13.6a7.585,7.585,0,0,1-7.27-9.793,42.57,42.57,0,0,1,10.043-17.393q13.9-14.32,34.968-14.32,18.779,0,31.492,11.933T1633.119,60.6a32.994,32.994,0,0,1-5.552,18.574q-5.552,8.405-16.135,13.593,13.9,4.151,21.738,14.475a39.115,39.115,0,0,1,7.834,24.333q0,20.545-15.149,34.812t-38.6,14.267q-22.206,0-36.213-13.438-11.163-10.707-14.279-27.584a7.6,7.6,0,0,1,7.467-8.993h14.105a7.553,7.553,0,0,1,7.276,5.408q2.241,7.826,7.065,12.18,6.381,5.759,16.135,5.759a23.152,23.152,0,0,0,16.862-6.537,21.482,21.482,0,0,0,6.693-15.98q0-10.375-9.027-17.536-7.14-5.663-19.283-6.972a7.636,7.636,0,0,1-6.762-7.61V88.43a7.613,7.613,0,0,1,6.441-7.506,34.273,34.273,0,0,0,9.176-2.525,19.338,19.338,0,0,0,7.99-6.693,15.932,15.932,0,0,0,2.853-9.027,13.572,13.572,0,0,0-4.358-10.324q-4.358-4.1-11.414-4.1a18.487,18.487,0,0,0-11.311,3.787,19.02,19.02,0,0,0-5.326,6.01,7.531,7.531,0,0,1-6.573,3.8" transform="translate(-1529.329 -13.673)" fill="#fafafa"/>
              <path id="Trazado_601549" data-name="Trazado 601549" d="M1563.82,60.832h-13.978a7.388,7.388,0,0,1-7.083-9.518,42.744,42.744,0,0,1,10.113-17.669q13.9-14.32,34.968-14.32,18.779,0,31.492,11.933t12.711,28.327a33,33,0,0,1-5.552,18.574q-5.552,8.405-16.135,13.593,13.9,4.151,21.739,14.475a39.114,39.114,0,0,1,7.834,24.333q0,20.545-15.149,34.812t-38.6,14.267q-22.207,0-36.213-13.438c-7.5-7.19-12.239-16.473-14.317-27.833a7.4,7.4,0,0,1,7.272-8.743h14.493a7.347,7.347,0,0,1,7.088,5.281c1.5,5.276,3.856,9.382,7.1,12.307q6.381,5.759,16.135,5.759a23.151,23.151,0,0,0,16.862-6.537,21.48,21.48,0,0,0,6.693-15.979q0-10.375-9.027-17.536-7.187-5.7-19.447-6.986a7.437,7.437,0,0,1-6.6-7.413V87.238a7.412,7.412,0,0,1,6.278-7.309,34.524,34.524,0,0,0,9.338-2.548,19.334,19.334,0,0,0,7.99-6.693,15.933,15.933,0,0,0,2.854-9.027,13.573,13.573,0,0,0-4.358-10.324q-4.358-4.1-11.414-4.1a18.486,18.486,0,0,0-11.31,3.787,19.11,19.11,0,0,0-5.368,6.093,7.312,7.312,0,0,1-6.408,3.713" transform="translate(-1528.587 -12.989)" fill="#f5f5f5"/>
              <path id="Trazado_601550" data-name="Trazado 601550" d="M1562.864,59.814h-14.358a7.191,7.191,0,0,1-6.9-9.242,42.914,42.914,0,0,1,10.183-17.944q13.9-14.32,34.968-14.32,18.779,0,31.492,11.933t12.711,28.327a33,33,0,0,1-5.551,18.574q-5.552,8.405-16.135,13.593,13.9,4.151,21.738,14.475a39.116,39.116,0,0,1,7.834,24.333q0,20.544-15.149,34.812t-38.6,14.267q-22.206,0-36.214-13.437c-7.549-7.241-12.291-16.61-14.353-28.082a7.2,7.2,0,0,1,7.077-8.494h14.88a7.145,7.145,0,0,1,6.9,5.153c1.5,5.337,3.863,9.487,7.13,12.435q6.381,5.759,16.135,5.758,10.168,0,16.862-6.537a21.481,21.481,0,0,0,6.693-15.979q0-10.375-9.027-17.536c-4.823-3.825-11.362-6.138-19.611-7a7.231,7.231,0,0,1-6.433-7.215V86.046a7.2,7.2,0,0,1,6.115-7.112,35.237,35.237,0,0,0,9.5-2.569,19.339,19.339,0,0,0,7.99-6.693,15.934,15.934,0,0,0,2.854-9.027,13.574,13.574,0,0,0-4.358-10.324q-4.358-4.1-11.414-4.1a18.485,18.485,0,0,0-11.31,3.787,19.118,19.118,0,0,0-5.41,6.177,7.1,7.1,0,0,1-6.243,3.629" transform="translate(-1527.842 -12.306)" fill="#f0f0f0"/>
              <path id="Trazado_601551" data-name="Trazado 601551" d="M1561.908,58.8H1547.17a6.993,6.993,0,0,1-6.708-8.967,43.086,43.086,0,0,1,10.253-18.219q13.9-14.32,34.968-14.32,18.779,0,31.492,11.933t12.711,28.327a33,33,0,0,1-5.551,18.574q-5.553,8.405-16.135,13.593,13.9,4.151,21.738,14.475a39.113,39.113,0,0,1,7.834,24.333q0,20.545-15.15,34.812t-38.6,14.267q-22.206,0-36.213-13.438c-7.6-7.293-12.344-16.746-14.39-28.331a7.005,7.005,0,0,1,6.882-8.245h15.267a6.945,6.945,0,0,1,6.713,5.026c1.5,5.4,3.87,9.591,7.162,12.562q6.382,5.759,16.135,5.759,10.168,0,16.861-6.537a21.481,21.481,0,0,0,6.693-15.979q0-10.375-9.028-17.536c-4.854-3.85-11.449-6.162-19.775-7.014a7.031,7.031,0,0,1-6.269-7.017v-12a7,7,0,0,1,5.951-6.915,35.621,35.621,0,0,0,9.665-2.592,19.334,19.334,0,0,0,7.99-6.693,15.93,15.93,0,0,0,2.854-9.027,13.573,13.573,0,0,0-4.358-10.324q-4.359-4.1-11.414-4.1a18.485,18.485,0,0,0-11.31,3.787,19.123,19.123,0,0,0-5.452,6.26,6.9,6.9,0,0,1-6.079,3.546" transform="translate(-1527.096 -11.622)" fill="#ececec"/>
              <path id="Trazado_601552" data-name="Trazado 601552" d="M1560.951,57.78h-15.118a6.8,6.8,0,0,1-6.521-8.691,43.254,43.254,0,0,1,10.323-18.495q13.9-14.32,34.968-14.32,18.779,0,31.492,11.933t12.711,28.327a33,33,0,0,1-5.551,18.574q-5.552,8.405-16.135,13.593,13.9,4.151,21.738,14.475a39.115,39.115,0,0,1,7.834,24.333q0,20.545-15.149,34.812t-38.6,14.267q-22.206,0-36.213-13.438c-7.656-7.344-12.4-16.883-14.428-28.581a6.807,6.807,0,0,1,6.688-8h15.654a6.746,6.746,0,0,1,6.525,4.9c1.505,5.458,3.877,9.7,7.195,12.689q6.381,5.759,16.135,5.759,10.168,0,16.862-6.537a21.482,21.482,0,0,0,6.693-15.98q0-10.375-9.028-17.536c-4.885-3.875-11.535-6.186-19.94-7.027a6.831,6.831,0,0,1-6.1-6.819V83.661a6.8,6.8,0,0,1,5.788-6.718,36,36,0,0,0,9.828-2.613,19.334,19.334,0,0,0,7.99-6.693,15.93,15.93,0,0,0,2.854-9.027,13.573,13.573,0,0,0-4.358-10.324q-4.358-4.1-11.414-4.1a18.487,18.487,0,0,0-11.31,3.787,19.136,19.136,0,0,0-5.493,6.343,6.7,6.7,0,0,1-5.914,3.462" transform="translate(-1526.349 -10.938)" fill="#e7e7e7"/>
              <path id="Trazado_601553" data-name="Trazado 601553" d="M1559.994,56.763h-15.5a6.6,6.6,0,0,1-6.334-8.416,43.417,43.417,0,0,1,10.393-18.77q13.9-14.32,34.968-14.32,18.779,0,31.492,11.933t12.711,28.327a33,33,0,0,1-5.552,18.574q-5.552,8.405-16.135,13.593,13.9,4.151,21.738,14.475a39.114,39.114,0,0,1,7.834,24.333q0,20.545-15.15,34.812t-38.6,14.267q-22.206,0-36.213-13.438c-7.71-7.4-12.453-17.019-14.464-28.83a6.608,6.608,0,0,1,6.493-7.747h16.042a6.547,6.547,0,0,1,6.338,4.772c1.506,5.519,3.884,9.8,7.227,12.816q6.381,5.759,16.135,5.759a23.153,23.153,0,0,0,16.862-6.537,21.482,21.482,0,0,0,6.693-15.98q0-10.375-9.028-17.536c-4.917-3.9-11.622-6.21-20.1-7.041a6.631,6.631,0,0,1-5.94-6.622V82.469a6.592,6.592,0,0,1,5.625-6.521,36.411,36.411,0,0,0,9.99-2.635,19.339,19.339,0,0,0,7.99-6.693,15.933,15.933,0,0,0,2.854-9.027A13.574,13.574,0,0,0,1594,47.268q-4.358-4.1-11.414-4.1a18.485,18.485,0,0,0-11.31,3.787,19.142,19.142,0,0,0-5.535,6.427,6.494,6.494,0,0,1-5.749,3.379" transform="translate(-1525.603 -10.255)" fill="#e2e2e2"/>
              <path id="Trazado_601554" data-name="Trazado 601554" d="M1559.036,55.746h-15.878a6.4,6.4,0,0,1-6.147-8.14,43.581,43.581,0,0,1,10.463-19.046q13.9-14.32,34.968-14.32,18.779,0,31.492,11.933T1626.645,54.5a33,33,0,0,1-5.551,18.574q-5.552,8.405-16.135,13.593,13.9,4.151,21.738,14.475a39.113,39.113,0,0,1,7.834,24.333q0,20.545-15.149,34.812t-38.6,14.268q-22.206,0-36.214-13.438c-7.764-7.447-12.509-17.154-14.5-29.079a6.409,6.409,0,0,1,6.3-7.5h16.429a6.348,6.348,0,0,1,6.15,4.644c1.505,5.58,3.891,9.9,7.26,12.944q6.381,5.759,16.135,5.759a23.153,23.153,0,0,0,16.862-6.537,21.481,21.481,0,0,0,6.693-15.98q0-10.375-9.027-17.536c-4.949-3.925-11.709-6.236-20.268-7.055a6.432,6.432,0,0,1-5.776-6.424V81.278a6.389,6.389,0,0,1,5.462-6.324,36.778,36.778,0,0,0,10.154-2.658,19.337,19.337,0,0,0,7.99-6.693,15.934,15.934,0,0,0,2.853-9.027,13.574,13.574,0,0,0-4.358-10.324q-4.358-4.1-11.414-4.1a18.484,18.484,0,0,0-11.31,3.787,19.156,19.156,0,0,0-5.577,6.51,6.292,6.292,0,0,1-5.584,3.3" transform="translate(-1524.856 -9.571)" fill="#ddd"/>
              <path id="Trazado_601555" data-name="Trazado 601555" d="M1558.078,54.729H1541.82a6.2,6.2,0,0,1-5.96-7.865c2.116-7.689,5.526-14.157,10.532-19.321q13.9-14.32,34.968-14.32,18.779,0,31.492,11.933t12.711,28.327a33,33,0,0,1-5.551,18.574q-5.552,8.405-16.135,13.593,13.9,4.151,21.738,14.475a39.112,39.112,0,0,1,7.834,24.333q0,20.545-15.149,34.812t-38.6,14.267q-22.206,0-36.213-13.438c-7.818-7.5-12.566-17.29-14.539-29.328a6.209,6.209,0,0,1,6.1-7.248h16.817a6.149,6.149,0,0,1,5.962,4.517c1.505,5.642,3.9,10.008,7.292,13.071q6.382,5.759,16.135,5.759a23.152,23.152,0,0,0,16.861-6.537,21.482,21.482,0,0,0,6.693-15.98q0-10.375-9.028-17.536c-4.979-3.95-11.795-6.261-20.432-7.068a6.233,6.233,0,0,1-5.612-6.227V80.086a6.188,6.188,0,0,1,5.3-6.127,37.158,37.158,0,0,0,10.317-2.679,19.339,19.339,0,0,0,7.99-6.693,15.931,15.931,0,0,0,2.854-9.027,13.574,13.574,0,0,0-4.358-10.324q-4.358-4.1-11.414-4.1a18.487,18.487,0,0,0-11.31,3.787,19.167,19.167,0,0,0-5.618,6.593,6.091,6.091,0,0,1-5.42,3.213" transform="translate(-1524.108 -8.888)" fill="#d8d8d8"/>
              <path id="Trazado_601556" data-name="Trazado 601556" d="M1557.12,53.712h-16.639a6,6,0,0,1-5.773-7.59c2.111-7.81,5.536-14.371,10.6-19.6q13.9-14.32,34.968-14.32,18.779,0,31.492,11.933t12.711,28.327a33,33,0,0,1-5.551,18.574q-5.552,8.405-16.135,13.593,13.9,4.151,21.739,14.475a39.115,39.115,0,0,1,7.834,24.333q0,20.544-15.149,34.812t-38.6,14.267q-22.206,0-36.213-13.438c-7.871-7.55-12.625-17.426-14.576-29.577a6.01,6.01,0,0,1,5.908-7h17.2a5.952,5.952,0,0,1,5.774,4.39c1.5,5.7,3.905,10.113,7.324,13.2q6.381,5.759,16.135,5.759a23.151,23.151,0,0,0,16.861-6.537,21.481,21.481,0,0,0,6.693-15.98q0-10.375-9.027-17.536c-5.011-3.975-11.881-6.288-20.6-7.082a6.035,6.035,0,0,1-5.448-6.029v-13.8a5.987,5.987,0,0,1,5.136-5.931,37.512,37.512,0,0,0,10.48-2.7,19.336,19.336,0,0,0,7.99-6.693,15.932,15.932,0,0,0,2.854-9.027,13.572,13.572,0,0,0-4.358-10.324q-4.358-4.1-11.414-4.1a18.487,18.487,0,0,0-11.31,3.787,19.174,19.174,0,0,0-5.66,6.677,5.892,5.892,0,0,1-5.255,3.129" transform="translate(-1523.36 -8.204)" fill="#d3d3d3"/>
              <path id="Trazado_601557" data-name="Trazado 601557" d="M1556.161,52.694h-17.019a5.8,5.8,0,0,1-5.586-7.315c2.1-7.932,5.547-14.586,10.673-19.872q13.9-14.32,34.968-14.32,18.779,0,31.492,11.933T1623.4,51.448a33,33,0,0,1-5.552,18.574q-5.552,8.405-16.135,13.593,13.9,4.151,21.738,14.475a39.114,39.114,0,0,1,7.834,24.333q0,20.545-15.149,34.812t-38.6,14.267q-22.206,0-36.213-13.438c-7.925-7.6-12.685-17.56-14.613-29.826a5.811,5.811,0,0,1,5.714-6.75h17.591a5.755,5.755,0,0,1,5.586,4.262c1.5,5.765,3.912,10.218,7.356,13.325q6.381,5.759,16.135,5.759a23.153,23.153,0,0,0,16.862-6.537,21.482,21.482,0,0,0,6.693-15.98q0-10.375-9.028-17.536c-5.042-4-11.967-6.315-20.761-7.1a5.836,5.836,0,0,1-5.283-5.831V77.7a5.784,5.784,0,0,1,4.973-5.734,37.875,37.875,0,0,0,10.643-2.724,19.34,19.34,0,0,0,7.99-6.693,15.933,15.933,0,0,0,2.854-9.027,13.574,13.574,0,0,0-4.358-10.324q-4.358-4.1-11.414-4.1a18.485,18.485,0,0,0-11.31,3.787,19.174,19.174,0,0,0-5.7,6.76,5.693,5.693,0,0,1-5.09,3.046" transform="translate(-1522.612 -7.52)" fill="#cecece"/>
              <path id="Trazado_601558" data-name="Trazado 601558" d="M1555.2,51.677h-17.4a5.6,5.6,0,0,1-5.4-7.039c2.1-8.054,5.557-14.8,10.742-20.147q13.9-14.32,34.968-14.32,18.779,0,31.492,11.933t12.711,28.327A32.994,32.994,0,0,1,1616.767,69q-5.551,8.405-16.135,13.593,13.9,4.151,21.738,14.475a39.113,39.113,0,0,1,7.834,24.333q0,20.545-15.149,34.812t-38.6,14.267q-22.206,0-36.213-13.437c-7.978-7.653-12.746-17.7-14.65-30.076a5.611,5.611,0,0,1,5.519-6.5h17.979a5.558,5.558,0,0,1,5.4,4.135c1.5,5.827,3.919,10.322,7.389,13.453q6.381,5.759,16.135,5.759a23.153,23.153,0,0,0,16.862-6.537,21.483,21.483,0,0,0,6.693-15.98q0-10.375-9.028-17.536c-5.074-4.024-12.053-6.342-20.925-7.11a5.638,5.638,0,0,1-5.119-5.634V76.509a5.584,5.584,0,0,1,4.81-5.537,38.218,38.218,0,0,0,10.806-2.746,19.337,19.337,0,0,0,7.99-6.693,15.931,15.931,0,0,0,2.854-9.027,13.573,13.573,0,0,0-4.358-10.324q-4.358-4.1-11.414-4.1a18.486,18.486,0,0,0-11.31,3.787,19.172,19.172,0,0,0-5.743,6.843,5.5,5.5,0,0,1-4.925,2.963" transform="translate(-1521.864 -6.836)" fill="#cacaca"/>
              <path id="Trazado_601559" data-name="Trazado 601559" d="M1554.243,50.66h-17.779a5.4,5.4,0,0,1-5.212-6.764c2.087-8.176,5.568-15.014,10.812-20.422q13.9-14.32,34.968-14.32,18.779,0,31.492,11.933t12.711,28.327a33,33,0,0,1-5.552,18.574q-5.552,8.405-16.135,13.593,13.9,4.151,21.738,14.475a39.114,39.114,0,0,1,7.834,24.333q0,20.545-15.149,34.812t-38.6,14.267q-22.206,0-36.213-13.438c-8.033-7.7-12.811-17.83-14.687-30.325a5.41,5.41,0,0,1,5.324-6.251h18.365a5.362,5.362,0,0,1,5.211,4.008c1.5,5.889,3.926,10.426,7.421,13.58q6.381,5.759,16.135,5.759,10.168,0,16.861-6.537a21.481,21.481,0,0,0,6.693-15.98q0-10.375-9.028-17.536c-5.1-4.049-12.14-6.371-21.089-7.123a5.44,5.44,0,0,1-4.955-5.436V75.317a5.383,5.383,0,0,1,4.647-5.34,38.541,38.541,0,0,0,10.969-2.768,19.334,19.334,0,0,0,7.99-6.693,15.928,15.928,0,0,0,2.854-9.027,13.573,13.573,0,0,0-4.358-10.324q-4.358-4.1-11.414-4.1a18.486,18.486,0,0,0-11.31,3.787A19.173,19.173,0,0,0,1559,47.78a5.3,5.3,0,0,1-4.761,2.879" transform="translate(-1521.115 -6.153)" fill="#c5c5c5"/>
              <path id="Trazado_601560" data-name="Trazado 601560" d="M1553.284,49.643h-18.159a5.2,5.2,0,0,1-5.024-6.488c2.074-8.3,5.579-15.229,10.882-20.7q13.9-14.32,34.968-14.32,18.779,0,31.492,11.933T1620.154,48.4a32.994,32.994,0,0,1-5.552,18.574q-5.552,8.405-16.135,13.593,13.9,4.151,21.738,14.475a39.114,39.114,0,0,1,7.834,24.333q0,20.545-15.149,34.812t-38.6,14.267q-22.206,0-36.213-13.437c-8.086-7.756-12.876-17.964-14.724-30.575a5.209,5.209,0,0,1,5.129-6h18.753a5.166,5.166,0,0,1,5.023,3.881c1.493,5.951,3.934,10.531,7.453,13.707q6.381,5.759,16.135,5.759,10.168,0,16.862-6.537a21.482,21.482,0,0,0,6.693-15.98q0-10.375-9.028-17.536c-5.137-4.074-12.226-6.4-21.253-7.137a5.242,5.242,0,0,1-4.791-5.238V74.125a5.183,5.183,0,0,1,4.484-5.143,38.857,38.857,0,0,0,11.133-2.79,19.337,19.337,0,0,0,7.99-6.693,15.932,15.932,0,0,0,2.854-9.027,13.573,13.573,0,0,0-4.358-10.324q-4.358-4.1-11.414-4.1a18.486,18.486,0,0,0-11.31,3.787,19.167,19.167,0,0,0-5.827,7.01,5.1,5.1,0,0,1-4.6,2.8" transform="translate(-1520.366 -5.469)" fill="silver"/>
              <path id="Trazado_601561" data-name="Trazado 601561" d="M1552.324,48.626h-18.539a5,5,0,0,1-4.837-6.213c2.06-8.423,5.589-15.443,10.952-20.973q13.9-14.32,34.968-14.32,18.779,0,31.492,11.933t12.711,28.327a33,33,0,0,1-5.552,18.573q-5.552,8.405-16.135,13.593,13.9,4.151,21.738,14.475a39.115,39.115,0,0,1,7.834,24.333q0,20.545-15.149,34.812t-38.6,14.267q-22.206,0-36.213-13.437c-8.139-7.807-12.944-18.1-14.761-30.824a5.009,5.009,0,0,1,4.934-5.753h19.141a4.971,4.971,0,0,1,4.835,3.754c1.488,6.013,3.94,10.635,7.486,13.834q6.381,5.759,16.135,5.759a23.153,23.153,0,0,0,16.862-6.537,21.482,21.482,0,0,0,6.693-15.98q0-10.375-9.027-17.536c-5.168-4.1-12.312-6.431-21.418-7.151a5.045,5.045,0,0,1-4.626-5.04V72.934a4.982,4.982,0,0,1,4.321-4.946,39.173,39.173,0,0,0,11.3-2.812,19.339,19.339,0,0,0,7.99-6.693,15.933,15.933,0,0,0,2.853-9.027,13.573,13.573,0,0,0-4.358-10.324q-4.358-4.1-11.414-4.1a18.486,18.486,0,0,0-11.31,3.787,19.16,19.16,0,0,0-5.868,7.093,4.911,4.911,0,0,1-4.432,2.713" transform="translate(-1519.617 -4.786)" fill="#bbb"/>
              <path id="Trazado_601562" data-name="Trazado 601562" d="M1551.364,47.609h-18.92a4.8,4.8,0,0,1-4.65-5.938c2.042-8.547,5.6-15.657,11.022-21.248q13.9-14.32,34.968-14.32,18.779,0,31.492,11.933t12.711,28.327a33,33,0,0,1-5.551,18.574q-5.552,8.405-16.135,13.593,13.9,4.151,21.738,14.475a39.113,39.113,0,0,1,7.834,24.333q0,20.545-15.149,34.812t-38.6,14.267q-22.206,0-36.214-13.438c-8.193-7.858-13.014-18.231-14.8-31.073a4.808,4.808,0,0,1,4.739-5.5h19.528a4.776,4.776,0,0,1,4.648,3.626c1.482,6.076,3.947,10.74,7.518,13.962q6.382,5.759,16.135,5.759a23.153,23.153,0,0,0,16.862-6.537,21.483,21.483,0,0,0,6.693-15.98q0-10.375-9.027-17.536c-5.2-4.124-12.4-6.463-21.582-7.165a4.848,4.848,0,0,1-4.462-4.843V71.742a4.782,4.782,0,0,1,4.157-4.749,39.44,39.44,0,0,0,11.459-2.834,19.336,19.336,0,0,0,7.99-6.693,15.931,15.931,0,0,0,2.854-9.027,13.573,13.573,0,0,0-4.358-10.324q-4.358-4.1-11.414-4.1a18.485,18.485,0,0,0-11.31,3.787,19.146,19.146,0,0,0-5.91,7.177,4.716,4.716,0,0,1-4.266,2.629" transform="translate(-1518.867 -4.102)" fill="#b6b6b6"/>
              <path id="Trazado_601563" data-name="Trazado 601563" d="M1550.4,46.591h-19.3a4.6,4.6,0,0,1-4.464-5.662c2.022-8.672,5.611-15.871,11.093-21.524q13.9-14.32,34.968-14.32,18.779,0,31.492,11.933T1616.9,45.345a33,33,0,0,1-5.551,18.574q-5.553,8.405-16.135,13.593,13.9,4.151,21.739,14.475a39.113,39.113,0,0,1,7.834,24.333q0,20.545-15.15,34.812t-38.6,14.267q-22.206,0-36.213-13.437c-8.247-7.91-13.089-18.364-14.835-31.322a4.607,4.607,0,0,1,4.544-5.255h19.915a4.582,4.582,0,0,1,4.46,3.5c1.475,6.139,3.954,10.844,7.55,14.089q6.381,5.759,16.135,5.759a23.151,23.151,0,0,0,16.861-6.537,21.482,21.482,0,0,0,6.693-15.98q0-10.375-9.028-17.536c-5.231-4.149-12.483-6.5-21.746-7.178a4.651,4.651,0,0,1-4.3-4.645V70.549A4.583,4.583,0,0,1,1565.073,66c5.014-.633,8.891-1.559,11.622-2.856a19.337,19.337,0,0,0,7.99-6.693,15.931,15.931,0,0,0,2.853-9.027A13.574,13.574,0,0,0,1583.18,37.1q-4.358-4.1-11.414-4.1a18.486,18.486,0,0,0-11.31,3.787,19.123,19.123,0,0,0-5.952,7.26,4.525,4.525,0,0,1-4.1,2.546" transform="translate(-1518.116 -3.418)" fill="#b1b1b1"/>
              <path id="Trazado_601564" data-name="Trazado 601564" d="M1549.441,45.574h-19.68a4.4,4.4,0,0,1-4.276-5.387c2-8.8,5.622-16.086,11.162-21.8q13.9-14.32,34.968-14.32,18.78,0,31.492,11.933t12.711,28.327a33,33,0,0,1-5.551,18.574q-5.552,8.405-16.135,13.593,13.9,4.151,21.739,14.475a39.115,39.115,0,0,1,7.834,24.333q0,20.545-15.149,34.812t-38.6,14.268q-22.206,0-36.213-13.438c-8.3-7.961-13.166-18.5-14.872-31.571a4.407,4.407,0,0,1,4.35-5.005h20.3a4.387,4.387,0,0,1,4.272,3.372c1.467,6.2,3.961,10.948,7.583,14.216q6.381,5.759,16.135,5.759,10.168,0,16.862-6.537a21.482,21.482,0,0,0,6.693-15.98q0-10.375-9.027-17.536c-5.262-4.174-12.569-6.531-21.911-7.192a4.455,4.455,0,0,1-4.134-4.448V69.357A4.383,4.383,0,0,1,1563.826,65c5.093-.631,9.025-1.567,11.785-2.878a19.338,19.338,0,0,0,7.99-6.693,15.932,15.932,0,0,0,2.853-9.027,13.573,13.573,0,0,0-4.358-10.324q-4.358-4.1-11.414-4.1a18.486,18.486,0,0,0-11.31,3.787,19.1,19.1,0,0,0-5.993,7.343,4.333,4.333,0,0,1-3.937,2.463" transform="translate(-1517.366 -2.734)" fill="#acacac"/>
              <path id="Trazado_601565" data-name="Trazado 601565" d="M1548.48,44.557h-20.06a4.2,4.2,0,0,1-4.089-5.112c1.97-8.924,5.633-16.3,11.233-22.075q13.9-14.32,34.968-14.32,18.779,0,31.492,11.933t12.711,28.327a33,33,0,0,1-5.551,18.574q-5.552,8.405-16.135,13.593,13.9,4.151,21.738,14.475a39.113,39.113,0,0,1,7.834,24.333q0,20.545-15.149,34.812t-38.6,14.267q-22.206,0-36.213-13.438c-8.354-8.013-13.247-18.629-14.909-31.82a4.205,4.205,0,0,1,4.155-4.756h20.69a4.194,4.194,0,0,1,4.085,3.244c1.457,6.265,3.968,11.053,7.615,14.344q6.381,5.759,16.135,5.759a23.152,23.152,0,0,0,16.862-6.537,21.481,21.481,0,0,0,6.693-15.98q0-10.375-9.027-17.536c-5.294-4.2-12.655-6.567-22.075-7.206a4.259,4.259,0,0,1-3.97-4.25V68.165a4.185,4.185,0,0,1,3.668-4.159c5.171-.627,9.157-1.574,11.948-2.9a19.34,19.34,0,0,0,7.99-6.693,15.933,15.933,0,0,0,2.854-9.027,13.574,13.574,0,0,0-4.358-10.324q-4.358-4.1-11.414-4.1a18.486,18.486,0,0,0-11.31,3.787,19.069,19.069,0,0,0-6.035,7.426,4.141,4.141,0,0,1-3.772,2.379" transform="translate(-1516.615 -2.051)" fill="#a8a8a8"/>
              <path id="Trazado_601566" data-name="Trazado 601566" d="M1547.518,43.54h-20.44a4,4,0,0,1-3.9-4.836c1.937-9.051,5.644-16.514,11.3-22.35q13.9-14.32,34.969-14.32,18.779,0,31.492,11.933t12.711,28.327a33,33,0,0,1-5.551,18.574q-5.552,8.405-16.135,13.593,13.9,4.151,21.738,14.475a39.112,39.112,0,0,1,7.834,24.333q0,20.545-15.149,34.812t-38.6,14.267q-22.206,0-36.214-13.438c-8.407-8.064-13.333-18.761-14.946-32.069a4,4,0,0,1,3.96-4.507h21.077a4,4,0,0,1,3.9,3.117c1.446,6.329,3.975,11.157,7.647,14.471q6.382,5.759,16.135,5.759a23.151,23.151,0,0,0,16.862-6.537,21.481,21.481,0,0,0,6.693-15.979q0-10.375-9.028-17.536c-5.325-4.223-12.74-6.605-22.239-7.219a4.063,4.063,0,0,1-3.805-4.052V66.974a3.985,3.985,0,0,1,3.505-3.962c5.25-.622,9.289-1.582,12.111-2.922a19.337,19.337,0,0,0,7.99-6.693,15.931,15.931,0,0,0,2.854-9.027,13.574,13.574,0,0,0-4.358-10.324q-4.358-4.1-11.414-4.1a18.485,18.485,0,0,0-11.31,3.787,19.023,19.023,0,0,0-6.077,7.51,3.952,3.952,0,0,1-3.608,2.3" transform="translate(-1515.863 -1.367)" fill="#a3a3a3"/>
              <path id="Trazado_601567" data-name="Trazado 601567" d="M1546.556,42.523h-20.82a3.794,3.794,0,0,1-3.715-4.561c1.9-9.179,5.654-16.729,11.372-22.625q13.9-14.32,34.968-14.32,18.779,0,31.492,11.933t12.711,28.327a33,33,0,0,1-5.551,18.574q-5.553,8.405-16.135,13.593,13.9,4.151,21.739,14.475a39.115,39.115,0,0,1,7.834,24.333q0,20.545-15.149,34.812t-38.6,14.267q-22.206,0-36.213-13.438c-8.461-8.116-13.424-18.892-14.984-32.319a3.8,3.8,0,0,1,3.765-4.258h21.464a3.811,3.811,0,0,1,3.709,2.99q2.134,9.593,7.68,14.6,6.381,5.759,16.135,5.759a23.151,23.151,0,0,0,16.861-6.537,21.481,21.481,0,0,0,6.693-15.98q0-10.375-9.028-17.536-8.035-6.372-22.4-7.233a3.869,3.869,0,0,1-3.641-3.855V65.782a3.789,3.789,0,0,1,3.342-3.765q8-.912,12.274-2.944a19.338,19.338,0,0,0,7.99-6.693,15.932,15.932,0,0,0,2.853-9.027,13.574,13.574,0,0,0-4.358-10.324q-4.359-4.1-11.414-4.1a18.487,18.487,0,0,0-11.31,3.787A18.98,18.98,0,0,0,1550,40.31a3.763,3.763,0,0,1-3.443,2.212" transform="translate(-1515.112 -0.684)" fill="#9e9e9e"/>
              <path id="Trazado_601568" data-name="Trazado 601568" d="M1545.593,41.506h-21.2a3.593,3.593,0,0,1-3.528-4.286q2.776-13.963,11.442-22.9Q1546.211,0,1567.276,0q18.779,0,31.492,11.933t12.711,28.327a32.994,32.994,0,0,1-5.552,18.574q-5.552,8.405-16.135,13.593,13.9,4.151,21.738,14.475a39.114,39.114,0,0,1,7.834,24.333q0,20.545-15.149,34.812t-38.6,14.267q-22.206,0-36.213-13.438-12.772-12.251-15.021-32.568a3.6,3.6,0,0,1,3.57-4.008H1539.8a3.616,3.616,0,0,1,3.522,2.862q2.128,9.686,7.712,14.726,6.381,5.759,16.135,5.759,10.168,0,16.862-6.537a21.48,21.48,0,0,0,6.693-15.979q0-10.375-9.028-17.536-8.081-6.41-22.567-7.247a3.672,3.672,0,0,1-3.477-3.657V64.59a3.588,3.588,0,0,1,3.179-3.568q8.112-.912,12.437-2.966a19.333,19.333,0,0,0,7.99-6.693,15.93,15.93,0,0,0,2.854-9.027,13.572,13.572,0,0,0-4.358-10.324q-4.358-4.1-11.414-4.1a18.486,18.486,0,0,0-11.31,3.787,18.919,18.919,0,0,0-6.16,7.677,3.575,3.575,0,0,1-3.278,2.129" transform="translate(-1514.36 0)" fill="#999"/>
            </g>
          </g>
        </g>
        <path id="Trazado_601569" data-name="Trazado 601569" d="M1547.437,41.506h-27.912q2.179-16.912,12.14-27.186Q1545.569,0,1566.634,0q18.779,0,31.492,11.933t12.711,28.327a33,33,0,0,1-5.552,18.574q-5.552,8.405-16.135,13.593,13.9,4.151,21.738,14.475a39.114,39.114,0,0,1,7.834,24.333q0,20.545-15.15,34.812t-38.6,14.267q-22.206,0-36.213-13.438T1513.4,110.3h28.742q1.868,11.829,8.249,17.588t16.135,5.759a23.152,23.152,0,0,0,16.862-6.537,21.48,21.48,0,0,0,6.693-15.979q0-10.375-9.027-17.536t-26.045-7.367v-24.9q10.479-.829,15.616-3.269a19.336,19.336,0,0,0,7.99-6.693,15.936,15.936,0,0,0,2.853-9.027,13.573,13.573,0,0,0-4.358-10.324q-4.358-4.1-11.414-4.1a18.485,18.485,0,0,0-11.31,3.787,18.949,18.949,0,0,0-6.952,9.806" transform="translate(-820.196 11707.518)" fill="#e1efe3"/>
        <path id="Trazado_601620" data-name="Trazado 601620" d="M2196.018,166.3l-16.055,23.758,16.055,23.058,14.654-23.758Z" transform="translate(-1288.209 11595.74)" fill="#e1efe3"/>
        <text id="Induce_a_la_innovación." data-name="Induce a la innovación." transform="translate(806.03 11763.604)" fill="#12263f" font-size="16" font-family="Roboto-Regular, Roboto"><tspan x="0" y="17">Induce a la </tspan><tspan x="0" y="41">innovación.</tspan></text>
      </g>
    </g>
    <g id="Grupo_886486" data-name="Grupo 886486">
      <path id="Trazado_601594" data-name="Trazado 601594" d="M3204.14,170.089l10.5-19.351V94.108l-46.893-14.016,14.631-59.18h190.573c6.008,0,10.879,4.547,10.879,10.155V159.933c0,5.609-4.871,10.155-10.879,10.155Z" transform="translate(-1963.834 11693.462)" fill="#fef5e5"/>
      <g id="Grupo_886128" data-name="Grupo 886128" transform="translate(1172.33 11712.064)" style="mix-blend-mode: multiply;isolation: isolate">
        <g id="Grupo_886127" data-name="Grupo 886127">
          <g id="Grupo_886126" data-name="Grupo 886126" clip-path="url(#clip-path-3)">
            <path id="Trazado_601595" data-name="Trazado 601595" d="M3132.635,35.229h56.339a8.393,8.393,0,0,1,8.393,8.393V53.711a8.393,8.393,0,0,1-8.393,8.393h-41.414l-6.226,27.7a40.977,40.977,0,0,1,5.084-1.09,33.21,33.21,0,0,1,4.773-.363q20.752,0,34.5,14.164t13.748,36.265q0,22.311-15.2,37.614a50.174,50.174,0,0,1-36.992,15.305q-19.509,0-33.515-11.1a49.381,49.381,0,0,1-14.433-18.545,8.393,8.393,0,0,1,7.647-11.858h13.99a8.487,8.487,0,0,1,7.068,3.71,24.479,24.479,0,0,0,7.156,7.134,23.1,23.1,0,0,0,12.711,3.684,21.983,21.983,0,0,0,16.394-6.952q6.745-6.95,6.745-17.847,0-10.584-6.278-17.38a19.944,19.944,0,0,0-15.2-6.8,20.248,20.248,0,0,0-9.39,2.387,30.39,30.39,0,0,0-6.1,4.253,8.42,8.42,0,0,1-7.4,1.917l-11.089-2.48a8.393,8.393,0,0,1-6.368-9.977l15.254-70.013a8.392,8.392,0,0,1,8.2-6.606" transform="translate(-3089.645 -28.226)" fill="#fff"/>
            <path id="Trazado_601596" data-name="Trazado 601596" d="M3131.285,34.212h56.7a8.193,8.193,0,0,1,8.193,8.193V52.893a8.193,8.193,0,0,1-8.193,8.193h-41.613l-6.226,27.7a40.971,40.971,0,0,1,5.084-1.09,33.2,33.2,0,0,1,4.773-.363q20.752,0,34.5,14.164t13.749,36.265q0,22.311-15.2,37.614a50.174,50.174,0,0,1-36.992,15.305q-19.509,0-33.516-11.1a49.5,49.5,0,0,1-14.55-18.849,8.2,8.2,0,0,1,7.474-11.554h14.389a8.294,8.294,0,0,1,6.914,3.638,24.48,24.48,0,0,0,7.2,7.205,23.1,23.1,0,0,0,12.711,3.684,21.985,21.985,0,0,0,16.395-6.952q6.743-6.95,6.744-17.847,0-10.584-6.278-17.38a19.946,19.946,0,0,0-15.2-6.8,20.253,20.253,0,0,0-9.391,2.387,30.414,30.414,0,0,0-6.167,4.316,8.217,8.217,0,0,1-7.234,1.877l-11.385-2.546a8.193,8.193,0,0,1-6.217-9.74l15.33-70.364a8.193,8.193,0,0,1,8.005-6.449" transform="translate(-3088.789 -27.542)" fill="#fafafa"/>
            <path id="Trazado_601597" data-name="Trazado 601597" d="M3129.933,33.195h57.059a7.994,7.994,0,0,1,7.994,7.994V52.076a7.994,7.994,0,0,1-7.994,7.994H3145.18l-6.226,27.7a40.958,40.958,0,0,1,5.084-1.09,33.2,33.2,0,0,1,4.773-.363q20.751,0,34.5,14.164t13.748,36.265q0,22.311-15.2,37.614a50.172,50.172,0,0,1-36.992,15.305q-19.509,0-33.516-11.1a49.623,49.623,0,0,1-14.667-19.153,8,8,0,0,1,7.3-11.249h14.79a8.1,8.1,0,0,1,6.759,3.567,24.478,24.478,0,0,0,7.245,7.277,23.1,23.1,0,0,0,12.711,3.684,21.985,21.985,0,0,0,16.395-6.952q6.743-6.95,6.744-17.847,0-10.584-6.277-17.38a19.945,19.945,0,0,0-15.2-6.8,20.25,20.25,0,0,0-9.391,2.387,30.432,30.432,0,0,0-6.233,4.378,8.017,8.017,0,0,1-7.065,1.838l-11.68-2.613a7.994,7.994,0,0,1-6.066-9.5l15.406-70.715a7.994,7.994,0,0,1,7.811-6.292" transform="translate(-3087.93 -26.858)" fill="#f5f5f5"/>
            <path id="Trazado_601598" data-name="Trazado 601598" d="M3128.579,32.178H3186a7.794,7.794,0,0,1,7.794,7.794V51.258A7.794,7.794,0,0,1,3186,59.052h-42.012l-6.226,27.7a40.981,40.981,0,0,1,5.084-1.09,33.208,33.208,0,0,1,4.773-.363q20.751,0,34.5,14.164t13.749,36.265q0,22.311-15.2,37.614a50.172,50.172,0,0,1-36.991,15.305q-19.509,0-33.516-11.1a49.733,49.733,0,0,1-14.783-19.457,7.8,7.8,0,0,1,7.127-10.945h15.189a7.891,7.891,0,0,1,6.6,3.5,24.644,24.644,0,0,0,7.29,7.348,23.1,23.1,0,0,0,12.711,3.684,21.985,21.985,0,0,0,16.395-6.952q6.744-6.95,6.745-17.847,0-10.584-6.278-17.38a19.945,19.945,0,0,0-15.2-6.8,20.246,20.246,0,0,0-9.39,2.387,30.776,30.776,0,0,0-6.3,4.441,7.8,7.8,0,0,1-6.894,1.8l-11.977-2.679a7.8,7.8,0,0,1-5.915-9.266l15.483-71.066a7.794,7.794,0,0,1,7.616-6.135" transform="translate(-3087.072 -26.175)" fill="#efefef"/>
            <path id="Trazado_601599" data-name="Trazado 601599" d="M3127.224,31.16H3185a7.6,7.6,0,0,1,7.595,7.595V50.44A7.594,7.594,0,0,1,3185,58.034h-42.211l-6.226,27.7a40.985,40.985,0,0,1,5.085-1.09,33.207,33.207,0,0,1,4.773-.363q20.752,0,34.5,14.164t13.748,36.265q0,22.311-15.2,37.614a50.172,50.172,0,0,1-36.991,15.305q-19.509,0-33.516-11.1a49.864,49.864,0,0,1-14.9-19.762,7.6,7.6,0,0,1,6.955-10.641h15.59a7.694,7.694,0,0,1,6.449,3.424,24.694,24.694,0,0,0,7.334,7.419,23.1,23.1,0,0,0,12.711,3.684A21.984,21.984,0,0,0,3159.5,153.7q6.744-6.95,6.745-17.847,0-10.584-6.278-17.38a19.944,19.944,0,0,0-15.2-6.8,20.247,20.247,0,0,0-9.39,2.387,30.9,30.9,0,0,0-6.369,4.5,7.593,7.593,0,0,1-6.726,1.758l-12.272-2.745a7.6,7.6,0,0,1-5.763-9.028L3119.8,37.138a7.6,7.6,0,0,1,7.421-5.978" transform="translate(-3086.21 -25.491)" fill="#eaeaea"/>
            <path id="Trazado_601600" data-name="Trazado 601600" d="M3125.868,30.143h58.14a7.4,7.4,0,0,1,7.4,7.4V49.622a7.4,7.4,0,0,1-7.4,7.4H3141.6l-6.226,27.7a40.926,40.926,0,0,1,5.084-1.09,33.21,33.21,0,0,1,4.773-.363q20.752,0,34.5,14.164t13.748,36.265q0,22.311-15.2,37.614a50.174,50.174,0,0,1-36.991,15.305q-19.509,0-33.516-11.1a49.985,49.985,0,0,1-15.017-20.066,7.4,7.4,0,0,1,6.782-10.336h15.99a7.5,7.5,0,0,1,6.293,3.352,24.749,24.749,0,0,0,7.379,7.491,23.1,23.1,0,0,0,12.711,3.684,21.985,21.985,0,0,0,16.394-6.952q6.743-6.95,6.745-17.847,0-10.584-6.278-17.38a19.944,19.944,0,0,0-15.2-6.8,20.248,20.248,0,0,0-9.39,2.387,31.01,31.01,0,0,0-6.437,4.566,7.388,7.388,0,0,1-6.555,1.719l-12.568-2.811a7.4,7.4,0,0,1-5.612-8.791l15.636-71.768a7.4,7.4,0,0,1,7.226-5.821" transform="translate(-3085.349 -24.807)" fill="#e5e5e5"/>
            <path id="Trazado_601601" data-name="Trazado 601601" d="M3124.51,29.126h58.5a7.2,7.2,0,0,1,7.2,7.2V48.8a7.2,7.2,0,0,1-7.2,7.2H3140.4l-6.226,27.7a40.918,40.918,0,0,1,5.085-1.09,33.193,33.193,0,0,1,4.773-.363q20.752,0,34.5,14.164t13.749,36.265q0,22.311-15.2,37.614a50.173,50.173,0,0,1-36.991,15.305q-19.509,0-33.515-11.1a50.094,50.094,0,0,1-15.134-20.371,7.2,7.2,0,0,1,6.608-10.032h16.39a7.3,7.3,0,0,1,6.138,3.281,24.8,24.8,0,0,0,7.424,7.562,23.1,23.1,0,0,0,12.711,3.684,21.983,21.983,0,0,0,16.394-6.952q6.744-6.95,6.745-17.847,0-10.584-6.277-17.38a19.947,19.947,0,0,0-15.2-6.8,20.246,20.246,0,0,0-9.39,2.387,31.135,31.135,0,0,0-6.5,4.628,7.185,7.185,0,0,1-6.385,1.679l-12.864-2.877a7.2,7.2,0,0,1-5.46-8.554L3117.48,34.79a7.2,7.2,0,0,1,7.031-5.664" transform="translate(-3084.485 -24.124)" fill="#e0e0e0"/>
            <path id="Trazado_601602" data-name="Trazado 601602" d="M3123.153,28.109h58.86a7,7,0,0,1,7,7V47.987a7,7,0,0,1-7,7H3139.2l-6.226,27.7a40.952,40.952,0,0,1,5.084-1.09,33.2,33.2,0,0,1,4.773-.363q20.752,0,34.5,14.164t13.749,36.265q0,22.311-15.2,37.614a50.173,50.173,0,0,1-36.992,15.305q-19.508,0-33.515-11.1a50.214,50.214,0,0,1-15.25-20.675,7.006,7.006,0,0,1,6.435-9.728h16.79a7.1,7.1,0,0,1,5.984,3.209,24.84,24.84,0,0,0,7.469,7.634,23.1,23.1,0,0,0,12.711,3.684,21.986,21.986,0,0,0,16.4-6.952q6.743-6.95,6.744-17.847,0-10.584-6.278-17.38a19.945,19.945,0,0,0-15.2-6.8,20.249,20.249,0,0,0-9.391,2.387,31.257,31.257,0,0,0-6.571,4.691,6.984,6.984,0,0,1-6.216,1.64l-13.16-2.944a7,7,0,0,1-5.309-8.317l15.789-72.469a7,7,0,0,1,6.836-5.507" transform="translate(-3083.622 -23.44)" fill="#dadada"/>
            <path id="Trazado_601603" data-name="Trazado 601603" d="M3121.792,27.092h59.221a6.8,6.8,0,0,1,6.8,6.8V47.17a6.8,6.8,0,0,1-6.8,6.8H3138l-6.226,27.7a40.906,40.906,0,0,1,5.084-1.09,33.2,33.2,0,0,1,4.773-.363q20.752,0,34.5,14.164t13.748,36.265q0,22.311-15.2,37.614a50.175,50.175,0,0,1-36.992,15.305q-19.509,0-33.515-11.1a50.327,50.327,0,0,1-15.368-20.979,6.807,6.807,0,0,1,6.262-9.423h17.19a6.91,6.91,0,0,1,5.829,3.138,24.883,24.883,0,0,0,7.514,7.705,23.1,23.1,0,0,0,12.711,3.684,21.985,21.985,0,0,0,16.4-6.952q6.743-6.95,6.744-17.847,0-10.584-6.278-17.38a19.944,19.944,0,0,0-15.2-6.8,20.25,20.25,0,0,0-9.391,2.387,31.364,31.364,0,0,0-6.639,4.753,6.78,6.78,0,0,1-6.046,1.6l-13.456-3.01a6.8,6.8,0,0,1-5.157-8.08l15.865-72.82a6.8,6.8,0,0,1,6.641-5.35" transform="translate(-3082.755 -22.756)" fill="#d5d5d5"/>
            <path id="Trazado_601604" data-name="Trazado 601604" d="M3120.432,26.075h59.581a6.6,6.6,0,0,1,6.6,6.6v13.68a6.6,6.6,0,0,1-6.6,6.6H3136.8l-6.225,27.7a40.959,40.959,0,0,1,5.084-1.09,33.205,33.205,0,0,1,4.773-.363q20.752,0,34.5,14.164t13.749,36.265q0,22.311-15.2,37.614a50.174,50.174,0,0,1-36.992,15.305q-19.509,0-33.515-11.1a50.427,50.427,0,0,1-15.484-21.283,6.607,6.607,0,0,1,6.089-9.119h17.59a6.714,6.714,0,0,1,5.673,3.066,24.932,24.932,0,0,0,7.559,7.777,23.1,23.1,0,0,0,12.711,3.684,21.985,21.985,0,0,0,16.395-6.952q6.744-6.95,6.745-17.847,0-10.584-6.278-17.38a19.944,19.944,0,0,0-15.2-6.8,20.25,20.25,0,0,0-9.391,2.387,31.456,31.456,0,0,0-6.706,4.816,6.579,6.579,0,0,1-5.877,1.56l-13.751-3.076a6.6,6.6,0,0,1-5.006-7.842l15.942-73.171a6.6,6.6,0,0,1,6.446-5.193" transform="translate(-3081.889 -22.073)" fill="#d0d0d0"/>
            <path id="Trazado_601605" data-name="Trazado 601605" d="M3119.07,25.057h59.941a6.4,6.4,0,0,1,6.4,6.4V45.534a6.4,6.4,0,0,1-6.4,6.4H3135.6l-6.226,27.7a40.932,40.932,0,0,1,5.084-1.09,33.211,33.211,0,0,1,4.773-.363q20.752,0,34.5,14.164t13.749,36.265q0,22.31-15.2,37.614a50.175,50.175,0,0,1-36.992,15.306q-19.51,0-33.515-11.1a50.533,50.533,0,0,1-15.6-21.588,6.408,6.408,0,0,1,5.916-8.815h17.99a6.522,6.522,0,0,1,5.519,2.995,24.976,24.976,0,0,0,7.6,7.849,23.1,23.1,0,0,0,12.711,3.683,21.983,21.983,0,0,0,16.395-6.952q6.744-6.951,6.745-17.847,0-10.584-6.278-17.381a19.945,19.945,0,0,0-15.2-6.8,20.245,20.245,0,0,0-9.39,2.387,31.54,31.54,0,0,0-6.774,4.877,6.378,6.378,0,0,1-5.707,1.521l-14.047-3.142a6.4,6.4,0,0,1-4.854-7.605l16.019-73.522a6.4,6.4,0,0,1,6.251-5.036" transform="translate(-3081.022 -21.389)" fill="#cbcbcb"/>
            <path id="Trazado_601606" data-name="Trazado 601606" d="M3117.707,24.04h60.3a6.2,6.2,0,0,1,6.2,6.2V44.716a6.2,6.2,0,0,1-6.2,6.2H3134.4l-6.226,27.7a40.969,40.969,0,0,1,5.084-1.09,33.2,33.2,0,0,1,4.773-.363q20.752,0,34.5,14.164t13.748,36.265q0,22.311-15.2,37.614a50.172,50.172,0,0,1-36.992,15.305q-19.508,0-33.515-11.1a50.619,50.619,0,0,1-15.718-21.892,6.208,6.208,0,0,1,5.743-8.511h18.39a6.33,6.33,0,0,1,5.364,2.923,25.008,25.008,0,0,0,7.648,7.92,23.1,23.1,0,0,0,12.711,3.684,21.985,21.985,0,0,0,16.395-6.952q6.743-6.95,6.744-17.847,0-10.584-6.277-17.38a19.946,19.946,0,0,0-15.2-6.8,20.248,20.248,0,0,0-9.391,2.387,31.655,31.655,0,0,0-6.841,4.94,6.176,6.176,0,0,1-5.537,1.481l-14.343-3.208a6.2,6.2,0,0,1-4.7-7.368l16.095-73.873a6.2,6.2,0,0,1,6.056-4.879" transform="translate(-3080.153 -20.705)" fill="#c5c5c5"/>
            <path id="Trazado_601607" data-name="Trazado 601607" d="M3116.343,23.023H3177a6,6,0,0,1,6,6V43.9a6,6,0,0,1-6,6H3133.2l-6.226,27.7a40.974,40.974,0,0,1,5.084-1.09,33.2,33.2,0,0,1,4.773-.363q20.752,0,34.5,14.164t13.749,36.265q0,22.311-15.2,37.614a50.175,50.175,0,0,1-36.992,15.305q-19.509,0-33.515-11.1a50.7,50.7,0,0,1-15.835-22.2,6.008,6.008,0,0,1,5.57-8.206h18.79a6.138,6.138,0,0,1,5.209,2.852,25.041,25.041,0,0,0,7.694,7.991,23.1,23.1,0,0,0,12.711,3.684,21.984,21.984,0,0,0,16.395-6.952q6.744-6.95,6.745-17.847,0-10.584-6.278-17.38a19.946,19.946,0,0,0-15.2-6.8,20.252,20.252,0,0,0-9.39,2.387,31.735,31.735,0,0,0-6.908,5,5.979,5.979,0,0,1-5.368,1.441l-14.638-3.274a6,6,0,0,1-4.552-7.131l16.171-74.224a6,6,0,0,1,5.861-4.722" transform="translate(-3079.283 -20.022)" fill="silver"/>
            <path id="Trazado_601608" data-name="Trazado 601608" d="M3114.978,22.006H3176a5.8,5.8,0,0,1,5.8,5.8V43.081a5.8,5.8,0,0,1-5.8,5.8h-44.007l-6.226,27.7a40.991,40.991,0,0,1,5.084-1.09,33.206,33.206,0,0,1,4.773-.363q20.752,0,34.5,14.164t13.749,36.265q0,22.311-15.2,37.614a50.174,50.174,0,0,1-36.992,15.305q-19.509,0-33.515-11.1a50.764,50.764,0,0,1-15.951-22.5,5.808,5.808,0,0,1,5.4-7.9h19.19a5.946,5.946,0,0,1,5.054,2.78,25.063,25.063,0,0,0,7.739,8.063A23.1,23.1,0,0,0,3132.3,151.5a21.984,21.984,0,0,0,16.395-6.952q6.744-6.95,6.745-17.847,0-10.584-6.278-17.38a19.945,19.945,0,0,0-15.2-6.8,20.25,20.25,0,0,0-9.391,2.387,31.827,31.827,0,0,0-6.976,5.065,5.778,5.778,0,0,1-5.2,1.4l-14.935-3.34a5.8,5.8,0,0,1-4.4-6.894l16.248-74.574a5.8,5.8,0,0,1,5.667-4.565" transform="translate(-3078.412 -19.338)" fill="#bbb"/>
            <path id="Trazado_601609" data-name="Trazado 601609" d="M3113.612,20.989h61.382a5.6,5.6,0,0,1,5.6,5.6V42.263a5.6,5.6,0,0,1-5.6,5.6h-44.207l-6.225,27.7a40.969,40.969,0,0,1,5.084-1.09,33.2,33.2,0,0,1,4.773-.363q20.752,0,34.5,14.164t13.749,36.265q0,22.311-15.2,37.614a50.173,50.173,0,0,1-36.991,15.305q-19.51,0-33.516-11.1c-7.4-5.865-12.621-13.516-16.068-22.8a5.607,5.607,0,0,1,5.223-7.6h19.59a5.755,5.755,0,0,1,4.9,2.709,25.094,25.094,0,0,0,7.783,8.134,23.1,23.1,0,0,0,12.711,3.684,21.985,21.985,0,0,0,16.395-6.952q6.743-6.95,6.745-17.847,0-10.584-6.278-17.38a19.945,19.945,0,0,0-15.2-6.8,20.248,20.248,0,0,0-9.391,2.387,31.866,31.866,0,0,0-7.043,5.128,5.581,5.581,0,0,1-5.029,1.362l-15.231-3.407a5.6,5.6,0,0,1-4.249-6.657L3108.141,25.4a5.6,5.6,0,0,1,5.471-4.408" transform="translate(-3077.541 -18.655)" fill="#b6b6b6"/>
            <path id="Trazado_601610" data-name="Trazado 601610" d="M3112.245,19.972h61.742a5.4,5.4,0,0,1,5.4,5.4V41.446a5.4,5.4,0,0,1-5.4,5.4h-44.406l-6.226,27.7a40.974,40.974,0,0,1,5.084-1.09,33.2,33.2,0,0,1,4.773-.363q20.752,0,34.5,14.164t13.749,36.265q0,22.311-15.2,37.614a50.174,50.174,0,0,1-36.992,15.305q-19.508,0-33.515-11.1c-7.482-5.93-12.748-13.679-16.185-23.109a5.407,5.407,0,0,1,5.05-7.294h19.99a5.564,5.564,0,0,1,4.744,2.637,25.117,25.117,0,0,0,7.828,8.206,23.1,23.1,0,0,0,12.711,3.684,21.984,21.984,0,0,0,16.395-6.952q6.744-6.95,6.744-17.847,0-10.584-6.278-17.38a19.944,19.944,0,0,0-15.2-6.8,20.253,20.253,0,0,0-9.391,2.387,31.952,31.952,0,0,0-7.111,5.19,5.381,5.381,0,0,1-4.859,1.323l-15.526-3.473a5.4,5.4,0,0,1-4.1-6.42l16.4-75.276a5.4,5.4,0,0,1,5.276-4.251" transform="translate(-3076.668 -17.971)" fill="#b0b0b0"/>
            <path id="Trazado_601611" data-name="Trazado 601611" d="M3110.877,18.954h62.1a5.2,5.2,0,0,1,5.2,5.2V40.628a5.2,5.2,0,0,1-5.2,5.2h-44.605l-6.226,27.7a41,41,0,0,1,5.085-1.09,33.206,33.206,0,0,1,4.773-.363q20.752,0,34.5,14.164t13.748,36.265q0,22.311-15.2,37.614a50.173,50.173,0,0,1-36.992,15.305q-19.509,0-33.515-11.1c-7.564-5.995-12.878-13.842-16.3-23.414a5.206,5.206,0,0,1,4.877-6.989h20.39a5.374,5.374,0,0,1,4.589,2.566,25.138,25.138,0,0,0,7.873,8.277,23.1,23.1,0,0,0,12.711,3.684,21.984,21.984,0,0,0,16.394-6.952q6.744-6.95,6.745-17.847,0-10.584-6.278-17.38a19.945,19.945,0,0,0-15.2-6.8,20.248,20.248,0,0,0-9.391,2.387,31.994,31.994,0,0,0-7.178,5.253,5.184,5.184,0,0,1-4.689,1.283l-15.822-3.539a5.2,5.2,0,0,1-3.947-6.182L3105.8,23.048a5.2,5.2,0,0,1,5.082-4.094" transform="translate(-3075.794 -17.287)" fill="#ababab"/>
            <path id="Trazado_601612" data-name="Trazado 601612" d="M3109.508,17.937h62.462a5,5,0,0,1,5,5V39.81a5,5,0,0,1-5,5h-44.8l-6.226,27.7a40.985,40.985,0,0,1,5.085-1.09,33.2,33.2,0,0,1,4.773-.363q20.753,0,34.5,14.164t13.748,36.265q0,22.311-15.2,37.614a50.173,50.173,0,0,1-36.992,15.305q-19.508,0-33.515-11.1c-7.646-6.059-13.012-14-16.418-23.718a5.005,5.005,0,0,1,4.7-6.685h20.79a5.185,5.185,0,0,1,4.434,2.494,25.157,25.157,0,0,0,7.917,8.349,23.106,23.106,0,0,0,12.711,3.684,21.984,21.984,0,0,0,16.394-6.952q6.745-6.95,6.745-17.847,0-10.584-6.278-17.38a19.946,19.946,0,0,0-15.2-6.8,20.249,20.249,0,0,0-9.391,2.387,32.048,32.048,0,0,0-7.246,5.315,4.987,4.987,0,0,1-4.52,1.244l-16.118-3.605a5,5,0,0,1-3.8-5.945l16.554-75.978a5,5,0,0,1,4.887-3.937" transform="translate(-3074.919 -16.603)" fill="#a6a6a6"/>
            <path id="Trazado_601613" data-name="Trazado 601613" d="M3108.138,16.92h62.823a4.8,4.8,0,0,1,4.8,4.8V38.993a4.8,4.8,0,0,1-4.8,4.8h-45l-6.226,27.7a40.98,40.98,0,0,1,5.084-1.09,33.21,33.21,0,0,1,4.773-.363q20.752,0,34.5,14.164t13.749,36.265q0,22.311-15.2,37.614a50.174,50.174,0,0,1-36.992,15.305q-19.509,0-33.515-11.1a50.83,50.83,0,0,1-16.536-24.022,4.805,4.805,0,0,1,4.531-6.38h21.19a5,5,0,0,1,4.279,2.423,25.155,25.155,0,0,0,7.963,8.42,23.1,23.1,0,0,0,12.71,3.684,21.984,21.984,0,0,0,16.395-6.952q6.745-6.95,6.745-17.847,0-10.584-6.278-17.38a19.945,19.945,0,0,0-15.2-6.8,20.25,20.25,0,0,0-9.391,2.387,32.073,32.073,0,0,0-7.313,5.378,4.788,4.788,0,0,1-4.35,1.2l-16.414-3.671a4.8,4.8,0,0,1-3.644-5.708l16.63-76.329a4.8,4.8,0,0,1,4.692-3.78" transform="translate(-3074.044 -15.92)" fill="#a1a1a1"/>
            <path id="Trazado_601614" data-name="Trazado 601614" d="M3106.767,15.9h63.183a4.6,4.6,0,0,1,4.6,4.6v17.67a4.6,4.6,0,0,1-4.6,4.6h-45.2l-6.226,27.7a40.98,40.98,0,0,1,5.084-1.09,33.211,33.211,0,0,1,4.773-.363q20.752,0,34.5,14.164t13.749,36.265q0,22.311-15.2,37.614a50.174,50.174,0,0,1-36.992,15.305q-19.508,0-33.515-11.1a50.77,50.77,0,0,1-16.652-24.326,4.6,4.6,0,0,1,4.357-6.076h21.59a4.809,4.809,0,0,1,4.124,2.352,25.155,25.155,0,0,0,8.008,8.492,23.1,23.1,0,0,0,12.711,3.684,21.984,21.984,0,0,0,16.394-6.952q6.745-6.95,6.745-17.847,0-10.584-6.278-17.38a19.945,19.945,0,0,0-15.2-6.8,20.25,20.25,0,0,0-9.391,2.387,32.088,32.088,0,0,0-7.381,5.44,4.592,4.592,0,0,1-4.181,1.164l-16.709-3.737a4.6,4.6,0,0,1-3.492-5.471l16.706-76.68a4.6,4.6,0,0,1,4.5-3.623" transform="translate(-3073.167 -15.236)" fill="#9b9b9b"/>
            <path id="Trazado_601615" data-name="Trazado 601615" d="M3105.4,14.886h63.543a4.4,4.4,0,0,1,4.4,4.4V37.358a4.4,4.4,0,0,1-4.4,4.4h-45.4l-6.226,27.7a40.911,40.911,0,0,1,5.084-1.09,33.2,33.2,0,0,1,4.773-.363q20.752,0,34.5,14.164t13.748,36.265q0,22.311-15.2,37.614a50.175,50.175,0,0,1-36.992,15.305q-19.509,0-33.516-11.1a50.68,50.68,0,0,1-16.769-24.631,4.4,4.4,0,0,1,4.185-5.772h21.99a4.624,4.624,0,0,1,3.969,2.28,25.091,25.091,0,0,0,8.053,8.563,23.1,23.1,0,0,0,12.711,3.684,21.984,21.984,0,0,0,16.394-6.952q6.744-6.95,6.744-17.847,0-10.584-6.277-17.38a19.946,19.946,0,0,0-15.2-6.8,20.244,20.244,0,0,0-9.39,2.387,31.92,31.92,0,0,0-7.448,5.5,4.4,4.4,0,0,1-4.011,1.125l-17.005-3.8a4.4,4.4,0,0,1-3.341-5.234l16.783-77.031a4.4,4.4,0,0,1,4.3-3.466" transform="translate(-3072.289 -14.553)" fill="#969696"/>
            <path id="Trazado_601616" data-name="Trazado 601616" d="M3104.022,13.869h63.9a4.2,4.2,0,0,1,4.2,4.2V36.54a4.2,4.2,0,0,1-4.2,4.2h-45.6l-6.226,27.7a40.991,40.991,0,0,1,5.084-1.09,33.2,33.2,0,0,1,4.773-.363q20.751,0,34.5,14.164t13.749,36.265q0,22.311-15.2,37.614a50.173,50.173,0,0,1-36.991,15.305q-19.509,0-33.516-11.1a50.553,50.553,0,0,1-16.886-24.935,4.2,4.2,0,0,1,4.012-5.468h22.39a4.434,4.434,0,0,1,3.814,2.209,25.136,25.136,0,0,0,8.1,8.635,23.1,23.1,0,0,0,12.71,3.684,21.985,21.985,0,0,0,16.395-6.952q6.744-6.95,6.745-17.847,0-10.584-6.278-17.38a19.946,19.946,0,0,0-15.2-6.8,20.249,20.249,0,0,0-9.39,2.387,32.068,32.068,0,0,0-7.516,5.565,4.2,4.2,0,0,1-3.841,1.085l-17.3-3.87a4.2,4.2,0,0,1-3.189-5l16.859-77.381a4.2,4.2,0,0,1,4.107-3.309" transform="translate(-3071.409 -13.869)" fill="#919191"/>
          </g>
        </g>
      </g>
      <path id="Trazado_601617" data-name="Trazado 601617" d="M3098.011,13.869H3169.5V40.743H3119.7l-6.226,27.7a40.963,40.963,0,0,1,5.084-1.09A33.2,33.2,0,0,1,3123.33,67q20.752,0,34.5,14.164t13.749,36.265q0,22.311-15.2,37.614a50.172,50.172,0,0,1-36.991,15.305q-19.509,0-33.515-11.1t-18.366-30.4h30.507a26.2,26.2,0,0,0,9.287,10.843,23.1,23.1,0,0,0,12.711,3.684,21.983,21.983,0,0,0,16.394-6.952q6.744-6.95,6.745-17.847,0-10.584-6.278-17.38a19.947,19.947,0,0,0-15.2-6.8,20.248,20.248,0,0,0-9.391,2.387,34.091,34.091,0,0,0-9.079,7.159l-23.658-5.292Z" transform="translate(-1896.455 11698.196)" fill="#fef5e5"/>
      <text id="Reduce_la_rotación_y_salida_de_colaboradores_de_la_organización." data-name="Reduce la rotación y salida de colaboradores de la
organización." transform="translate(1284.793 11727.677)" font-size="16" font-family="Roboto-Regular, Roboto"><tspan x="0" y="17">Reduce la </tspan><tspan x="0" y="41">rotación y salida </tspan><tspan x="0" y="65">de colaboradores </tspan><tspan x="0" y="89">de la</tspan><tspan x="0" y="113">organización.</tspan></text>
    </g>
  </g>
</svg>
