<svg xmlns="http://www.w3.org/2000/svg" xmlns:xlink="http://www.w3.org/1999/xlink" width="515.312" height="163.479" viewBox="0 0 515.312 163.479">
  <defs>
    <clipPath id="clip-path">
      <rect id="Rectángulo_300818" data-name="Rectángulo 300818" width="112.737" height="163.478" fill="none"/>
    </clipPath>
    <clipPath id="clip-path-2">
      <rect id="Rectángulo_300817" data-name="Rectángulo 300817" width="63.815" height="159.639" fill="none"/>
    </clipPath>
  </defs>
  <g id="Grupo_886487" data-name="Grupo 886487" transform="translate(-180 -11707.518)">
    <g id="Grupo_886482" data-name="Grupo 886482">
      <path id="Trazado_601522" data-name="Trazado 601522" d="M820.208,159.259l74.329-62.8L884.782,31c0-5.582,6.032-10.107,13.472-10.107h188.611c7.441,0,13.472,4.525,13.472,10.107v128.26c0,5.582-6.032,10.107-13.472,10.107H833.68c-7.441,0-13.472-4.525-13.472-10.107" transform="translate(-421.002 11693.477)" fill="#e1fbff"/>
      <g id="Grupo_886119" data-name="Grupo 886119" transform="translate(390.966 11707.518)" style="mix-blend-mode: multiply;isolation: isolate">
        <g id="Grupo_886118" data-name="Grupo 886118">
          <g id="Grupo_886117" data-name="Grupo 886117" clip-path="url(#clip-path)">
            <path id="Trazado_601523" data-name="Trazado 601523" d="M792.4,74.383H772.725a4.325,4.325,0,0,1-4.3-4.765q2.2-21.325,15.16-34.094,14.37-14.164,36.887-14.164,13.9,0,24.54,5.863a43.932,43.932,0,0,1,17.017,16.914A44.46,44.46,0,0,1,868.408,66.6q0,13.594-7.735,29.261t-28.288,37.044l-10.206,10.757a4.322,4.322,0,0,0,3.136,7.3H865.33a4.322,4.322,0,0,1,4.322,4.322v18.23a4.322,4.322,0,0,1-4.322,4.322H768.24a4.322,4.322,0,0,1-4.322-4.322V165.7a4.323,4.323,0,0,1,1.236-3.026l45.976-46.885q17.121-17.328,22.776-27.861t5.655-19.04A19.58,19.58,0,0,0,833.7,54.305q-5.863-5.759-15.1-5.759A20.029,20.029,0,0,0,803.037,55.5q-5.188,5.794-6.341,15.046a4.344,4.344,0,0,1-4.3,3.839" transform="translate(-756.915 -14.357)" fill="#fff"/>
            <path id="Trazado_601524" data-name="Trazado 601524" d="M782.564,34.507q14.37-14.164,36.888-14.164,13.9,0,24.54,5.863a43.936,43.936,0,0,1,17.017,16.914,44.459,44.459,0,0,1,6.381,22.465q0,13.594-7.735,29.261t-28.288,37.044l-10.205,10.757c-2.489,2.623-.959,7.3,2.656,7.3h40.506a4.8,4.8,0,0,1,.663.047,4.277,4.277,0,0,1,3.195,2.345,4.753,4.753,0,0,1,.454,2v14.326c0,.086-.07,4.038-.156,4.038a4.387,4.387,0,0,1-4.421,4.116H767.233a4.622,4.622,0,0,1-1.318-.2,4.279,4.279,0,0,1-3.014-4.077v-7.887a4.273,4.273,0,0,1,1.222-2.991l45.99-46.9q17.121-17.328,22.776-27.861t5.655-19.04a19.578,19.578,0,0,0-5.863-14.579q-5.863-5.759-15.1-5.759a20.031,20.031,0,0,0-15.565,6.952q-5.2,5.808-6.346,15.09a4.326,4.326,0,0,1-2.734,3.506,4.6,4.6,0,0,1-1.591.289h-19.7a4.261,4.261,0,0,1-4.089-3.059,4.5,4.5,0,0,1-.156-1.73q2.208-21.308,15.157-34.07" transform="translate(-756.231 -13.673)" fill="#fafafa"/>
            <path id="Trazado_601525" data-name="Trazado 601525" d="M781.547,33.49q14.37-14.163,36.888-14.164,13.9,0,24.54,5.862A43.935,43.935,0,0,1,859.992,42.1a44.458,44.458,0,0,1,6.381,22.465q0,13.594-7.735,29.261t-28.289,37.044l-10.2,10.756c-2.364,2.492-1.258,7.3,2.177,7.3h41a5.384,5.384,0,0,1,.671.045,4.229,4.229,0,0,1,3.2,2.391,5.269,5.269,0,0,1,.431,2.032v14.5a29.053,29.053,0,0,1-.311,4c0,2.16-2.36,3.911-4.519,3.911H766.226a4.945,4.945,0,0,1-1.314-.186,4.233,4.233,0,0,1-3.027-4.036v-7.958a4.222,4.222,0,0,1,1.207-2.956l46-46.915q17.121-17.328,22.776-27.861t5.655-19.04a19.577,19.577,0,0,0-5.863-14.578q-5.863-5.76-15.1-5.759A20.031,20.031,0,0,0,801,53.464q-5.213,5.823-6.352,15.135a4.277,4.277,0,0,1-2.759,3.475,4.974,4.974,0,0,1-1.594.274H770.579a4.194,4.194,0,0,1-4.047-3.084,4.71,4.71,0,0,1-.139-1.73q2.213-21.291,15.154-34.046" transform="translate(-755.548 -12.989)" fill="#f5f5f5"/>
            <path id="Trazado_601526" data-name="Trazado 601526" d="M780.53,32.473q14.37-14.164,36.888-14.164,13.9,0,24.54,5.862a43.936,43.936,0,0,1,17.017,16.914,44.459,44.459,0,0,1,6.381,22.465q0,13.594-7.735,29.261t-28.289,37.044l-10.2,10.756c-2.239,2.361-1.556,7.3,1.7,7.3h41.486a5.952,5.952,0,0,1,.679.042,4.185,4.185,0,0,1,3.2,2.437,5.856,5.856,0,0,1,.409,2.06v14.67c0,.258-.209,3.961-.467,3.961,0,2.046-2.572,3.705-4.618,3.705h-96.3a5.329,5.329,0,0,1-1.312-.176,4.189,4.189,0,0,1-3.04-4v-8.029a4.171,4.171,0,0,1,1.193-2.92l46.019-46.93Q825.2,95.406,830.855,84.873t5.655-19.04a19.579,19.579,0,0,0-5.863-14.579q-5.863-5.759-15.1-5.759a20.031,20.031,0,0,0-15.565,6.952q-5.225,5.836-6.357,15.18a4.229,4.229,0,0,1-2.785,3.445,5.39,5.39,0,0,1-1.6.26h-19.74a4.129,4.129,0,0,1-4.005-3.108,4.961,4.961,0,0,1-.123-1.729Q767.6,45.22,780.53,32.473" transform="translate(-754.864 -12.306)" fill="#f0f0f0"/>
            <path id="Trazado_601527" data-name="Trazado 601527" d="M779.513,31.455q14.37-14.164,36.888-14.164,13.9,0,24.54,5.863a43.932,43.932,0,0,1,17.017,16.914,44.457,44.457,0,0,1,6.381,22.465q0,13.594-7.735,29.261t-28.288,37.044l-10.2,10.755c-2.115,2.23-1.855,7.3,1.218,7.3h41.976a6.684,6.684,0,0,1,.687.04,4.146,4.146,0,0,1,3.206,2.483,6.55,6.55,0,0,1,.386,2.088v14.843c0,.343-.279,3.922-.622,3.922,0,1.932-2.784,3.5-4.717,3.5H764.211a5.727,5.727,0,0,1-1.309-.166,4.144,4.144,0,0,1-3.052-3.955v-8.1a4.122,4.122,0,0,1,1.178-2.886l46.034-46.944q17.121-17.328,22.776-27.861t5.655-19.04a19.578,19.578,0,0,0-5.863-14.579q-5.863-5.759-15.1-5.759a20.031,20.031,0,0,0-15.565,6.952q-5.237,5.85-6.361,15.224a4.183,4.183,0,0,1-2.811,3.415,5.867,5.867,0,0,1-1.6.246H768.435a4.066,4.066,0,0,1-3.964-3.133,5.231,5.231,0,0,1-.107-1.729q2.222-21.258,15.149-34" transform="translate(-754.18 -11.622)" fill="#ececec"/>
            <path id="Trazado_601528" data-name="Trazado 601528" d="M778.5,30.438q14.37-14.164,36.888-14.164,13.9,0,24.54,5.863A43.935,43.935,0,0,1,856.941,39.05a44.462,44.462,0,0,1,6.381,22.465q0,13.594-7.735,29.261T827.3,127.82l-10.2,10.755c-1.991,2.1-2.154,7.3.739,7.3H860.3c.169,0,.532.016.7.037a4.106,4.106,0,0,1,3.209,2.529,7.351,7.351,0,0,1,.363,2.117v15.015c0,.43-.348,3.884-.778,3.884,0,1.819-3,3.293-4.815,3.293H763.2a6.217,6.217,0,0,1-1.307-.156,4.1,4.1,0,0,1-3.065-3.914v-8.171a4.07,4.07,0,0,1,1.164-2.85L806.045,110.7q17.121-17.328,22.776-27.861t5.655-19.04a19.578,19.578,0,0,0-5.863-14.579q-5.863-5.759-15.1-5.759a20.031,20.031,0,0,0-15.565,6.952q-5.25,5.863-6.366,15.268a4.139,4.139,0,0,1-2.837,3.386,6.436,6.436,0,0,1-1.6.231H767.362a4.006,4.006,0,0,1-3.922-3.157,5.535,5.535,0,0,1-.09-1.729q2.227-21.241,15.146-33.974" transform="translate(-753.497 -10.938)" fill="#e7e7e7"/>
            <path id="Trazado_601529" data-name="Trazado 601529" d="M777.478,29.421q14.37-14.164,36.888-14.164,13.9,0,24.54,5.863a43.935,43.935,0,0,1,17.017,16.914A44.46,44.46,0,0,1,862.3,60.5q0,13.594-7.735,29.261T826.281,126.8l-10.2,10.755c-1.866,1.967-2.452,7.3.259,7.3h42.956c.159,0,.55.016.7.035a4.069,4.069,0,0,1,3.213,2.575,8.275,8.275,0,0,1,.34,2.145V164.8c0,.515-.418,3.845-.933,3.845,0,1.7-3.209,3.087-4.914,3.087H762.2a6.776,6.776,0,0,1-1.3-.147,4.057,4.057,0,0,1-3.077-3.874V159.47a4.02,4.02,0,0,1,1.15-2.815l46.062-46.974Q822.148,92.354,827.8,81.821t5.655-19.04A19.579,19.579,0,0,0,827.6,48.2q-5.863-5.759-15.1-5.759A20.031,20.031,0,0,0,796.933,49.4q-5.262,5.877-6.371,15.313a4.094,4.094,0,0,1-2.863,3.355,7.05,7.05,0,0,1-1.605.217H766.289a3.947,3.947,0,0,1-3.881-3.181,5.868,5.868,0,0,1-.074-1.728q2.232-21.225,15.144-33.95" transform="translate(-752.813 -10.255)" fill="#e2e2e2"/>
            <path id="Trazado_601530" data-name="Trazado 601530" d="M776.461,28.4q14.37-14.164,36.888-14.164,13.9,0,24.54,5.863a43.935,43.935,0,0,1,17.017,16.914,44.458,44.458,0,0,1,6.381,22.465q0,13.594-7.735,29.261t-28.288,37.044l-10.2,10.754c-1.742,1.836-2.751,7.3-.22,7.3h43.446c.149,0,.569.015.712.033a4.035,4.035,0,0,1,3.216,2.621,9.371,9.371,0,0,1,.318,2.173v15.36c0,.6-.488,3.806-1.089,3.806,0,1.592-3.421,2.882-5.013,2.882H761.189a7.45,7.45,0,0,1-1.3-.137,4.014,4.014,0,0,1-3.09-3.833v-8.312a3.969,3.969,0,0,1,1.135-2.78l46.077-46.988Q821.131,91.337,826.786,80.8t5.655-19.04a19.578,19.578,0,0,0-5.863-14.579q-5.863-5.759-15.1-5.759a20.031,20.031,0,0,0-15.565,6.952q-5.275,5.891-6.376,15.357a4.051,4.051,0,0,1-2.889,3.326,7.819,7.819,0,0,1-1.608.2H765.216a3.89,3.89,0,0,1-3.839-3.206,6.256,6.256,0,0,1-.058-1.728q2.237-21.208,15.141-33.926" transform="translate(-752.129 -9.571)" fill="#ddd"/>
            <path id="Trazado_601531" data-name="Trazado 601531" d="M775.444,27.387q14.37-14.164,36.888-14.164,13.9,0,24.54,5.863A43.935,43.935,0,0,1,853.889,36a44.459,44.459,0,0,1,6.381,22.465q0,13.594-7.735,29.261t-28.288,37.044l-10.2,10.754c-1.617,1.7-3.05,7.3-.7,7.3h43.937c.138,0,.587.015.72.031a4,4,0,0,1,3.219,2.667,10.665,10.665,0,0,1,.3,2.2v15.532c0,.687-.557,3.768-1.244,3.768,0,1.478-3.633,2.675-5.111,2.675H760.182a8.214,8.214,0,0,1-1.3-.127,3.973,3.973,0,0,1-3.1-3.793V157.4a3.918,3.918,0,0,1,1.121-2.744l46.091-47q17.121-17.328,22.776-27.861t5.655-19.04a19.578,19.578,0,0,0-5.863-14.579q-5.863-5.759-15.1-5.759A20.029,20.029,0,0,0,794.9,47.361q-5.287,5.9-6.381,15.4a4.01,4.01,0,0,1-2.914,3.3,8.677,8.677,0,0,1-1.611.188H764.144a3.835,3.835,0,0,1-3.8-3.23,6.74,6.74,0,0,1-.042-1.728q2.242-21.191,15.139-33.9" transform="translate(-751.446 -8.888)" fill="#d8d8d8"/>
            <path id="Trazado_601532" data-name="Trazado 601532" d="M774.427,26.37q14.37-14.164,36.888-14.164,13.9,0,24.54,5.862a43.935,43.935,0,0,1,17.017,16.914,44.459,44.459,0,0,1,6.381,22.465q0,13.594-7.735,29.261T823.23,123.751l-10.2,10.753c-1.493,1.574-3.348,7.3-1.179,7.3h44.427c.127,0,.605.014.728.028a3.973,3.973,0,0,1,3.223,2.713,12.234,12.234,0,0,1,.272,2.231v15.7c0,.773-.627,3.729-1.4,3.729,0,1.364-3.846,2.47-5.21,2.47H759.174a9.067,9.067,0,0,1-1.3-.117,3.93,3.93,0,0,1-3.115-3.752v-8.454a3.871,3.871,0,0,1,1.107-2.709l46.105-47.018Q819.1,89.3,824.752,78.77t5.655-19.04a19.579,19.579,0,0,0-5.863-14.579q-5.863-5.759-15.1-5.759a20.031,20.031,0,0,0-15.565,6.952q-5.3,5.918-6.386,15.446a3.969,3.969,0,0,1-2.94,3.266,9.711,9.711,0,0,1-1.614.173h-19.87a3.781,3.781,0,0,1-3.755-3.254,7.247,7.247,0,0,1-.026-1.727q2.247-21.174,15.136-33.878" transform="translate(-750.762 -8.204)" fill="#d3d3d3"/>
            <path id="Trazado_601533" data-name="Trazado 601533" d="M773.41,25.352Q787.78,11.188,810.3,11.188q13.9,0,24.54,5.863a43.935,43.935,0,0,1,17.017,16.914,44.459,44.459,0,0,1,6.381,22.465q0,13.594-7.735,29.261t-28.289,37.044l-10.2,10.753c-1.369,1.443-3.647,7.3-1.658,7.3h44.917c.117,0,.624.013.736.026a3.946,3.946,0,0,1,3.227,2.759,14.149,14.149,0,0,1,.25,2.259v15.876c0,.859-.7,3.691-1.555,3.691,0,1.25-4.058,2.264-5.308,2.264H758.167a10.189,10.189,0,0,1-1.293-.108,3.889,3.889,0,0,1-3.127-3.712v-8.525a3.82,3.82,0,0,1,1.092-2.674l46.12-47.032q17.121-17.328,22.776-27.861t5.655-19.04a19.579,19.579,0,0,0-5.863-14.579q-5.863-5.759-15.1-5.759a20.03,20.03,0,0,0-15.565,6.952q-5.311,5.932-6.391,15.491a3.929,3.929,0,0,1-2.966,3.235,10.966,10.966,0,0,1-1.617.159H762a3.73,3.73,0,0,1-3.714-3.279,7.867,7.867,0,0,1-.009-1.727q2.251-21.157,15.134-33.854" transform="translate(-750.078 -7.52)" fill="#cecece"/>
            <path id="Trazado_601534" data-name="Trazado 601534" d="M772.393,24.336q14.37-14.164,36.888-14.164,13.9,0,24.54,5.862a43.936,43.936,0,0,1,17.017,16.914,44.459,44.459,0,0,1,6.381,22.465q0,13.594-7.735,29.261T821.2,121.717l-10.2,10.753c-1.244,1.311-3.945,7.3-2.138,7.3h45.407c.106,0,.642.012.744.023a3.921,3.921,0,0,1,3.23,2.8,16.437,16.437,0,0,1,.227,2.288v16.049c0,.945-.766,3.652-1.711,3.652,0,1.137-4.27,2.058-5.407,2.058H757.16a11.545,11.545,0,0,1-1.289-.1,3.849,3.849,0,0,1-3.14-3.671v-8.6a3.769,3.769,0,0,1,1.078-2.639L799.942,104.6q17.121-17.328,22.776-27.861t5.655-19.04a19.578,19.578,0,0,0-5.863-14.579q-5.863-5.759-15.1-5.759a20.03,20.03,0,0,0-15.564,6.952q-5.324,5.946-6.4,15.535a3.89,3.89,0,0,1-2.992,3.205,12.529,12.529,0,0,1-1.62.144H760.927a3.68,3.68,0,0,1-3.672-3.3,8.536,8.536,0,0,1,.007-1.726q2.255-21.141,15.131-33.83" transform="translate(-749.395 -6.837)" fill="#cacaca"/>
            <path id="Trazado_601535" data-name="Trazado 601535" d="M771.375,23.318q14.37-14.164,36.887-14.164,13.9,0,24.54,5.863A43.93,43.93,0,0,1,849.82,31.93,44.456,44.456,0,0,1,856.2,54.4q0,13.594-7.735,29.261T820.177,120.7l-10.2,10.752c-1.12,1.18-4.244,7.3-2.617,7.3h45.9c.1,0,.66.011.752.021a3.9,3.9,0,0,1,3.234,2.851,19.361,19.361,0,0,1,.2,2.316v16.221c0,1.03-.835,3.613-1.866,3.613,0,1.023-4.482,1.853-5.506,1.853H756.151c-.2,0-1.1-.047-1.287-.088a3.809,3.809,0,0,1-3.152-3.631v-8.667a3.718,3.718,0,0,1,1.063-2.6l46.149-47.062Q816.045,86.251,821.7,75.718t5.655-19.04A19.579,19.579,0,0,0,821.492,42.1q-5.863-5.759-15.1-5.759a20.029,20.029,0,0,0-15.565,6.952q-5.336,5.96-6.4,15.58a3.854,3.854,0,0,1-3.018,3.175,14.456,14.456,0,0,1-1.623.13H759.853a3.632,3.632,0,0,1-3.631-3.327,9.4,9.4,0,0,1,.024-1.726Q758.507,36,771.375,23.318" transform="translate(-748.711 -6.153)" fill="#c5c5c5"/>
            <path id="Trazado_601536" data-name="Trazado 601536" d="M770.358,22.3q14.37-14.164,36.888-14.164,13.9,0,24.54,5.863A43.936,43.936,0,0,1,848.8,30.913a44.46,44.46,0,0,1,6.381,22.465q0,13.594-7.735,29.261t-28.288,37.044l-10.2,10.752c-1,1.049-4.543,7.3-3.1,7.3H852.25c.085,0,.679.01.76.019a3.874,3.874,0,0,1,3.237,2.9,23.036,23.036,0,0,1,.182,2.344v16.393c0,1.116-.9,3.574-2.021,3.574,0,.91-4.695,1.647-5.6,1.647H755.144c-.175,0-1.122-.043-1.284-.078a3.77,3.77,0,0,1-3.165-3.59v-8.738a3.668,3.668,0,0,1,1.049-2.568l46.163-47.076Q815.028,85.234,820.683,74.7t5.655-19.04a19.579,19.579,0,0,0-5.863-14.579q-5.863-5.759-15.1-5.759a20.03,20.03,0,0,0-15.565,6.952q-5.348,5.974-6.406,15.624a3.818,3.818,0,0,1-3.044,3.145c-.2.051-1.412.115-1.626.115H758.781a3.585,3.585,0,0,1-3.589-3.352,10.457,10.457,0,0,1,.04-1.725Q757.5,34.976,770.358,22.3" transform="translate(-748.027 -5.469)" fill="silver"/>
            <path id="Trazado_601537" data-name="Trazado 601537" d="M769.341,21.284Q783.711,7.12,806.229,7.12q13.9,0,24.54,5.862A43.938,43.938,0,0,1,847.786,29.9a44.46,44.46,0,0,1,6.381,22.465q0,13.594-7.735,29.261t-28.288,37.044l-10.2,10.751c-.871.918-4.841,7.3-3.576,7.3h46.877c.074,0,.7.01.768.016a3.855,3.855,0,0,1,3.241,2.943c.066.212.159,2.136.159,2.373v16.566c0,1.2-.975,3.536-2.177,3.536,0,.8-4.907,1.441-5.7,1.441h-93.4c-.153,0-1.139-.038-1.282-.068a3.731,3.731,0,0,1-3.177-3.549v-8.809a3.619,3.619,0,0,1,1.034-2.533l46.178-47.091q17.121-17.327,22.776-27.861t5.655-19.04a19.578,19.578,0,0,0-5.863-14.578q-5.863-5.759-15.1-5.759A20.03,20.03,0,0,0,788.8,41.258q-5.361,5.987-6.412,15.669a3.781,3.781,0,0,1-3.07,3.115c-.171.044-1.442.1-1.629.1H757.709a3.54,3.54,0,0,1-3.547-3.376,11.767,11.767,0,0,1,.056-1.725q2.27-21.09,15.124-33.758" transform="translate(-747.344 -4.786)" fill="#bbb"/>
            <path id="Trazado_601538" data-name="Trazado 601538" d="M768.324,20.266Q782.694,6.1,805.212,6.1q13.9,0,24.54,5.863a43.931,43.931,0,0,1,17.017,16.914,44.456,44.456,0,0,1,6.381,22.465q0,13.594-7.735,29.261t-28.288,37.044l-10.2,10.751c-.747.787-5.14,7.3-4.055,7.3h47.367c.064,0,.715.008.776.014a3.477,3.477,0,0,1,3.244,2.989,21.784,21.784,0,0,1,.136,2.4v16.738c0,1.288-1.044,3.5-2.332,3.5,0,.682-5.119,1.235-5.8,1.235H753.13c-.132,0-1.156-.034-1.279-.059a3.692,3.692,0,0,1-3.19-3.509v-8.88a3.568,3.568,0,0,1,1.02-2.5l46.192-47.106Q812.994,83.2,818.649,72.666t5.655-19.04a19.578,19.578,0,0,0-5.863-14.579q-5.863-5.759-15.1-5.759a20.031,20.031,0,0,0-15.565,6.952q-5.373,6-6.417,15.713a3.749,3.749,0,0,1-3.1,3.085c-.147.036-1.472.087-1.632.087h-20a3.5,3.5,0,0,1-3.506-3.4A13.409,13.409,0,0,1,753.2,54q2.275-21.073,15.121-33.734" transform="translate(-746.66 -4.101)" fill="#b6b6b6"/>
            <path id="Trazado_601539" data-name="Trazado 601539" d="M767.307,19.249q14.37-14.164,36.888-14.164,13.9,0,24.54,5.863a43.936,43.936,0,0,1,17.018,16.914,44.46,44.46,0,0,1,6.381,22.465q0,13.594-7.735,29.261t-28.289,37.044l-10.2,10.75c-.622.656-5.439,7.3-4.535,7.3h47.857c.053,0,.733.007.785.012a3.452,3.452,0,0,1,3.248,3.035c.073.141.114,2.26.114,2.43v16.91c0,1.374-1.114,3.458-2.488,3.458,0,.569-5.332,1.029-5.9,1.029H752.122c-.11,0-1.174-.029-1.276-.049a3.655,3.655,0,0,1-3.2-3.468v-8.951a3.517,3.517,0,0,1,1.006-2.462L794.856,99.51q17.121-17.328,22.776-27.861t5.655-19.04a19.579,19.579,0,0,0-5.863-14.579q-5.863-5.759-15.1-5.759a20.031,20.031,0,0,0-15.565,6.952q-5.386,6.015-6.421,15.758a3.716,3.716,0,0,1-3.121,3.055c-.123.029-1.5.072-1.635.072H755.564a3.455,3.455,0,0,1-3.464-3.425,15.607,15.607,0,0,1,.089-1.724q2.28-21.056,15.118-33.71" transform="translate(-745.976 -3.418)" fill="#b1b1b1"/>
            <path id="Trazado_601540" data-name="Trazado 601540" d="M766.29,18.233Q780.66,4.069,803.178,4.069q13.9,0,24.54,5.862a43.935,43.935,0,0,1,17.017,16.914,44.459,44.459,0,0,1,6.381,22.465q0,13.594-7.735,29.261t-28.288,37.044l-10.2,10.75c-.5.525-5.737,7.3-5.014,7.3h48.347c.042,0,.752.006.793.01a3.429,3.429,0,0,1,3.251,3.081c.058.113.091,2.323.091,2.458V156.3c0,1.46-1.184,3.42-2.643,3.42,0,.455-5.544.823-6,.823h-92.6c-.088,0-1.191-.024-1.273-.039a3.618,3.618,0,0,1-3.215-3.428v-9.021a3.466,3.466,0,0,1,.991-2.427l46.221-47.135q17.121-17.328,22.776-27.861t5.655-19.04a19.579,19.579,0,0,0-5.863-14.579q-5.863-5.759-15.1-5.759a20.031,20.031,0,0,0-15.565,6.952q-5.4,6.029-6.427,15.8a3.684,3.684,0,0,1-3.147,3.025c-.1.022-1.531.058-1.638.058H754.491a3.414,3.414,0,0,1-3.422-3.449c.009-.572.043-1.148.105-1.724q2.284-21.04,15.116-33.686" transform="translate(-745.293 -2.735)" fill="#acacac"/>
            <path id="Trazado_601541" data-name="Trazado 601541" d="M765.272,17.215Q779.642,3.051,802.16,3.051q13.9,0,24.54,5.863a43.936,43.936,0,0,1,17.017,16.914A44.46,44.46,0,0,1,850.1,48.292q0,13.594-7.735,29.261T814.075,114.6l-10.2,10.749c-.373.394-6.036,7.305-5.494,7.305H847.22c.032,0,.77,0,.8.007a3.409,3.409,0,0,1,3.255,3.127c.044.085.068,2.385.068,2.487v17.255c0,1.546-1.253,3.381-2.8,3.381,0,.341-5.756.617-6.1.617H750.107c-.065,0-1.208-.018-1.27-.029a3.581,3.581,0,0,1-3.228-3.387v-9.092a3.416,3.416,0,0,1,.977-2.392l46.235-47.15Q809.942,80.148,815.6,69.615t5.655-19.04A19.578,19.578,0,0,0,815.389,36q-5.863-5.759-15.1-5.759a20.031,20.031,0,0,0-15.565,6.952q-5.41,6.042-6.432,15.847a3.653,3.653,0,0,1-3.173,3c-.074.016-1.561.043-1.641.043H753.418a3.375,3.375,0,0,1-3.381-3.474c.02-.573.059-1.149.121-1.724q2.29-21.023,15.114-33.662" transform="translate(-744.609 -2.051)" fill="#a8a8a8"/>
            <path id="Trazado_601542" data-name="Trazado 601542" d="M764.255,16.2q14.37-14.164,36.888-14.164,13.9,0,24.54,5.862A43.936,43.936,0,0,1,842.7,24.811a44.46,44.46,0,0,1,6.381,22.465q0,13.594-7.735,29.261T813.058,113.58l-10.2,10.749c-.249.262-6.335,7.306-5.973,7.306h49.327c.021,0,.789,0,.809,0a3.39,3.39,0,0,1,3.258,3.173c.029.056.046,2.448.046,2.515v17.428a3.311,3.311,0,0,1-2.955,3.343c0,.227-5.968.411-6.2.411H749.1c-.044,0-1.227-.012-1.268-.019a3.546,3.546,0,0,1-3.24-3.347v-9.163a3.366,3.366,0,0,1,.963-2.357L791.8,96.459Q808.925,79.132,814.58,68.6t5.655-19.04a19.578,19.578,0,0,0-5.863-14.579q-5.863-5.759-15.1-5.759a20.031,20.031,0,0,0-15.565,6.952q-5.423,6.057-6.436,15.891c-.17,1.654-1.589,2.628-3.2,2.965-.05.01-1.59.029-1.644.029H752.346a3.338,3.338,0,0,1-3.339-3.5q.045-.863.138-1.723,2.294-21.006,15.111-33.638" transform="translate(-743.925 -1.368)" fill="#a3a3a3"/>
            <path id="Trazado_601543" data-name="Trazado 601543" d="M763.238,15.181q14.37-14.163,36.888-14.164,13.9,0,24.54,5.863a43.932,43.932,0,0,1,17.017,16.913,44.458,44.458,0,0,1,6.381,22.465q0,13.594-7.735,29.261t-28.288,37.044l-10.2,10.749c-.124.131-6.633,7.306-6.452,7.306h49.817l.817,0a3.374,3.374,0,0,1,3.262,3.219c.014.028.023,2.51.023,2.544v17.6a3.282,3.282,0,0,1-3.11,3.3c0,.113-6.18.206-6.294.206H748.092c-.022,0-1.244-.006-1.265-.01a3.511,3.511,0,0,1-3.252-3.306v-9.234a3.315,3.315,0,0,1,.948-2.321l46.264-47.179q17.121-17.328,22.776-27.861t5.655-19.04a19.579,19.579,0,0,0-5.863-14.579q-5.863-5.759-15.1-5.759a20.03,20.03,0,0,0-15.565,6.952q-5.435,6.07-6.441,15.935a3.289,3.289,0,0,1-3.225,2.935c-.024.01-1.62.014-1.647.014H751.273a3.3,3.3,0,0,1-3.3-3.522q.061-.866.154-1.723,2.3-20.989,15.108-33.614" transform="translate(-743.242 -0.684)" fill="#9e9e9e"/>
            <path id="Trazado_601544" data-name="Trazado 601544" d="M771.979,53.023H750.2a3.266,3.266,0,0,1-3.256-3.547Q748.9,27.3,762.22,14.164,776.59,0,799.108,0q13.9,0,24.54,5.862a43.931,43.931,0,0,1,17.017,16.914,44.46,44.46,0,0,1,6.382,22.465q0,13.594-7.736,29.261t-28.288,37.044L793.894,129.6h51.132a3.265,3.265,0,0,1,3.266,3.265v20.344a3.266,3.266,0,0,1-3.266,3.265h-99.2a3.265,3.265,0,0,1-3.265-3.265V143.9a3.266,3.266,0,0,1,.934-2.286l46.278-47.194Q806.89,77.1,812.545,66.564t5.656-19.04a19.581,19.581,0,0,0-5.863-14.579q-5.863-5.759-15.1-5.758a20.029,20.029,0,0,0-15.564,6.952q-5.448,6.084-6.447,15.98a3.255,3.255,0,0,1-3.25,2.9" transform="translate(-742.557)" fill="#999"/>
          </g>
        </g>
      </g>
      <path id="Trazado_601545" data-name="Trazado 601545" d="M775.036,53.023H746.709q1.14-24.694,15.512-38.859T799.109,0q13.9,0,24.54,5.862a43.935,43.935,0,0,1,17.017,16.914,44.459,44.459,0,0,1,6.381,22.465q0,13.594-7.735,29.261t-28.288,37.044L793.895,129.6h54.4v26.875H742.558v-13.9L789.77,94.424Q806.891,77.1,812.546,66.564t5.655-19.04a19.58,19.58,0,0,0-5.863-14.579q-5.863-5.759-15.1-5.758a20.029,20.029,0,0,0-15.565,6.952q-6.225,6.953-6.641,18.885" transform="translate(-351.592 11707.518)" fill="#e1fbff"/>
      <path id="Trazado_601619" data-name="Trazado 601619" d="M1431.314,166.3l-16.055,23.058,16.055,23.058,16.055-23.058Z" transform="translate(-752.057 11595.74)" fill="#e1fbff"/>
      <text id="La_organización_se_fortalece_y_está_mejor_preparada_para_asumir_las_amenazas_y_vulnerabilidades." data-name="La organización se fortalece y está mejor preparada para
asumir las amenazas y vulnerabilidades." transform="translate(512.5 11729.408)" fill="#12263f" font-size="16" font-family="Roboto-Regular, Roboto"><tspan x="0" y="17">La organización se </tspan><tspan x="0" y="41">fortalece y está mejor </tspan><tspan x="0" y="65">preparada para</tspan><tspan x="0" y="89">asumir las amenazas </tspan><tspan x="0" y="113">y vulnerabilidades.</tspan></text>
    </g>
    <g id="Grupo_886481" data-name="Grupo 886481">
      <path id="Trazado_601498" data-name="Trazado 601498" d="M111.042,158.422V28.263c0-5.251,3.583-9.508,8-9.508h141.1c4.42,0,8,4.257,8,9.508V158.422c0,5.251-3.583,9.508-8,9.508h-141.1c-4.42,0-8-4.257-8-9.508" transform="translate(105.366 11694.912)" fill="#eaeff3"/>
      <g id="Grupo_886116" data-name="Grupo 886116" transform="translate(183.475 11711.357)" style="mix-blend-mode: multiply;isolation: isolate">
        <g id="Grupo_886115" data-name="Grupo 886115">
          <g id="Grupo_886114" data-name="Grupo 886114" clip-path="url(#clip-path-2)">
            <path id="Trazado_601499" data-name="Trazado 601499" d="M54.823,33.071H86.37a7.654,7.654,0,0,1,7.654,7.654V178.052a7.654,7.654,0,0,1-7.654,7.654H72.833a7.654,7.654,0,0,1-7.654-7.654V60.361H47.443a7.654,7.654,0,0,1-6.517-11.669l7.38-11.981a7.655,7.655,0,0,1,6.517-3.64" transform="translate(-30.21 -26.068)" fill="#fff"/>
            <path id="Trazado_601500" data-name="Trazado 601500" d="M47.173,35.62a7.493,7.493,0,0,1,3.162-2.815,8.235,8.235,0,0,1,3.4-.751H85.347a7.475,7.475,0,0,1,6.032,3.113,8.122,8.122,0,0,1,1.467,4.616V176.96a8.123,8.123,0,0,1-1.464,4.612,7.474,7.474,0,0,1-6.035,3.117H71.5a7.472,7.472,0,0,1-6.026-3.1A8.119,8.119,0,0,1,64,176.96V59.388c0-.025-1.224-.044-1.248-.044H46.165a8.357,8.357,0,0,1-3.19-.639,7.532,7.532,0,0,1-4.441-6.377,8.22,8.22,0,0,1,1.207-4.642Z" transform="translate(-29.365 -25.384)" fill="#fafafa"/>
            <path id="Trazado_601501" data-name="Trazado 601501" d="M46.029,34.529a7.345,7.345,0,0,1,3.191-2.779,8.912,8.912,0,0,1,3.411-.714H84.313a7.312,7.312,0,0,1,5.951,3.177,8.694,8.694,0,0,1,1.393,4.626V175.868a8.694,8.694,0,0,1-1.391,4.622,7.311,7.311,0,0,1-5.954,3.181H70.156a7.31,7.31,0,0,1-5.945-3.17,8.7,8.7,0,0,1-1.4-4.636V58.415a9.685,9.685,0,0,0-1.233-.089h-16.7a9.17,9.17,0,0,1-3.217-.607,7.34,7.34,0,0,1-4.407-6.394,8.986,8.986,0,0,1,1.292-4.646Z" transform="translate(-28.509 -24.7)" fill="#f5f5f5"/>
            <path id="Trazado_601502" data-name="Trazado 601502" d="M44.878,33.439A7.2,7.2,0,0,1,48.1,30.7a9.681,9.681,0,0,1,3.423-.676H83.27a7.151,7.151,0,0,1,5.87,3.242A9.347,9.347,0,0,1,90.46,37.9V174.777a9.352,9.352,0,0,1-1.317,4.633,7.152,7.152,0,0,1-5.873,3.246H68.8a7.15,7.15,0,0,1-5.864-3.234,9.351,9.351,0,0,1-1.326-4.646V57.443A6.171,6.171,0,0,0,60.4,57.31H43.581a10.094,10.094,0,0,1-3.245-.575,7.155,7.155,0,0,1-4.372-6.411,9.862,9.862,0,0,1,1.378-4.651Z" transform="translate(-27.646 -24.017)" fill="#f0f0f0"/>
            <path id="Trazado_601503" data-name="Trazado 601503" d="M43.72,32.348a7.065,7.065,0,0,1,3.25-2.707A10.55,10.55,0,0,1,50.407,29H82.223a7,7,0,0,1,5.788,3.307,10.1,10.1,0,0,1,1.247,4.646V173.684a10.1,10.1,0,0,1-1.245,4.643,7,7,0,0,1-5.791,3.31H67.447a7,7,0,0,1-5.783-3.3,10.1,10.1,0,0,1-1.252-4.657V56.469a4.423,4.423,0,0,0-1.2-.178H42.278a11.164,11.164,0,0,1-3.272-.543,6.978,6.978,0,0,1-4.337-6.428,10.885,10.885,0,0,1,1.463-4.655Z" transform="translate(-26.777 -23.333)" fill="#ececec"/>
            <path id="Trazado_601504" data-name="Trazado 601504" d="M42.561,31.257a6.932,6.932,0,0,1,3.28-2.671,11.561,11.561,0,0,1,3.449-.6H81.173a6.845,6.845,0,0,1,5.707,3.371,10.972,10.972,0,0,1,1.173,4.656v136.58a10.975,10.975,0,0,1-1.171,4.654,6.846,6.846,0,0,1-5.709,3.374H66.087a6.845,6.845,0,0,1-5.7-3.365,10.978,10.978,0,0,1-1.179-4.667V55.5c0-.123-1.063-.222-1.185-.222H40.974a12.383,12.383,0,0,1-3.3-.511,6.807,6.807,0,0,1-4.3-6.444,12.064,12.064,0,0,1,1.548-4.659Z" transform="translate(-25.905 -22.649)" fill="#e7e7e7"/>
            <path id="Trazado_601505" data-name="Trazado 601505" d="M41.4,30.166a6.807,6.807,0,0,1,3.309-2.635,12.723,12.723,0,0,1,3.462-.564h31.95A6.7,6.7,0,0,1,85.744,30.4a11.984,11.984,0,0,1,1.1,4.666V171.5a12,12,0,0,1-1.1,4.664,6.7,6.7,0,0,1-5.628,3.439H64.724a6.7,6.7,0,0,1-5.621-3.43A12,12,0,0,1,58,171.5V54.524c0-.147-1.022-.267-1.17-.267H39.667a13.815,13.815,0,0,1-3.326-.479,6.644,6.644,0,0,1-4.268-6.461,13.446,13.446,0,0,1,1.633-4.663Z" transform="translate(-25.031 -21.966)" fill="#e2e2e2"/>
            <path id="Trazado_601506" data-name="Trazado 601506" d="M40.23,29.076a6.684,6.684,0,0,1,3.338-2.6,14.093,14.093,0,0,1,3.475-.526H79.061a6.559,6.559,0,0,1,5.544,3.5,13.179,13.179,0,0,1,1.027,4.676V170.409a13.183,13.183,0,0,1-1.025,4.674,6.559,6.559,0,0,1-5.546,3.5h-15.7a6.558,6.558,0,0,1-5.54-3.495,13.19,13.19,0,0,1-1.031-4.688V53.552c0-.172-.982-.311-1.154-.311H38.354A15.506,15.506,0,0,1,35,52.793a6.489,6.489,0,0,1-4.234-6.478,15.08,15.08,0,0,1,1.718-4.667Z" transform="translate(-24.151 -21.282)" fill="#ddd"/>
            <path id="Trazado_601507" data-name="Trazado 601507" d="M39.059,27.985a6.568,6.568,0,0,1,3.368-2.563,15.707,15.707,0,0,1,3.488-.489H78A6.423,6.423,0,0,1,83.462,28.5a14.579,14.579,0,0,1,.954,4.687V169.317A14.6,14.6,0,0,1,83.464,174,6.424,6.424,0,0,1,78,177.569H61.986a6.423,6.423,0,0,1-5.459-3.559,14.61,14.61,0,0,1-.958-4.7V52.579c0-.2-.942-.355-1.138-.355H37.039a17.5,17.5,0,0,1-3.38-.415,6.339,6.339,0,0,1-4.2-6.5,17.018,17.018,0,0,1,1.8-4.672Z" transform="translate(-23.268 -20.599)" fill="#d8d8d8"/>
            <path id="Trazado_601508" data-name="Trazado 601508" d="M37.884,26.894a6.456,6.456,0,0,1,3.4-2.527,17.622,17.622,0,0,1,3.5-.451H76.933a6.293,6.293,0,0,1,5.381,3.629,16.274,16.274,0,0,1,.88,4.7V168.225a16.286,16.286,0,0,1-.878,4.7,6.292,6.292,0,0,1-5.383,3.632H60.61a6.292,6.292,0,0,1-5.377-3.625,16.3,16.3,0,0,1-.884-4.71V51.606c0-.221-.9-.4-1.122-.4H35.718a19.866,19.866,0,0,1-3.407-.383,6.2,6.2,0,0,1-4.165-6.512,19.342,19.342,0,0,1,1.889-4.676Z" transform="translate(-22.381 -19.915)" fill="#d3d3d3"/>
            <path id="Trazado_601509" data-name="Trazado 601509" d="M36.7,25.8a6.351,6.351,0,0,1,3.427-2.491,19.947,19.947,0,0,1,3.514-.413H75.863c2.467,0,4.243,1.707,5.3,3.694A18.3,18.3,0,0,1,81.97,31.3V167.133a18.337,18.337,0,0,1-.8,4.705c-1.056,1.989-2.834,3.7-5.3,3.7H59.231c-2.465,0-4.239-1.706-5.3-3.69a18.346,18.346,0,0,1-.81-4.72V50.633c0-.245-.861-.444-1.106-.444H34.394a22.728,22.728,0,0,1-3.434-.351,6.06,6.06,0,0,1-4.13-6.529,22.164,22.164,0,0,1,1.974-4.68Z" transform="translate(-21.49 -19.231)" fill="#cecece"/>
            <path id="Trazado_601510" data-name="Trazado 601510" d="M35.207,24.713a6.252,6.252,0,0,1,3.456-2.455,22.813,22.813,0,0,1,3.527-.376H74.475c2.464,0,4.191,1.75,5.218,3.759a20.818,20.818,0,0,1,.733,4.717V166.041a20.864,20.864,0,0,1-.732,4.716c-1.027,2.01-2.755,3.761-5.22,3.761H57.533c-2.462,0-4.187-1.749-5.216-3.755a20.858,20.858,0,0,1-.736-4.731V49.66c0-.27-.821-.489-1.091-.489H32.752a26.249,26.249,0,0,1-3.461-.319c-2.929-.912-4.932-3.713-4.1-6.546-.062-.732,1.623-3.976,2.059-4.685Z" transform="translate(-20.281 -18.547)" fill="#cacaca"/>
            <path id="Trazado_601511" data-name="Trazado 601511" d="M33.969,23.622A6.153,6.153,0,0,1,37.455,21.2a26.321,26.321,0,0,1,3.54-.338H73.346a5.309,5.309,0,0,1,5.137,3.823c.414.549.66,3.986.66,4.727V164.949c0,.74-.245,4.177-.659,4.726a5.31,5.31,0,0,1-5.138,3.825H56.095a5.306,5.306,0,0,1-5.134-3.82c-.416-.55-.663-4-.663-4.741V48.687c0-.294-.781-.533-1.075-.533H31.369a30.66,30.66,0,0,1-3.488-.287c-2.969-.892-4.995-3.719-4.061-6.563-.056-.659,1.752-4.051,2.145-4.689Z" transform="translate(-19.331 -17.864)" fill="#c5c5c5"/>
            <path id="Trazado_601512" data-name="Trazado 601512" d="M32.726,22.531a6.062,6.062,0,0,1,3.515-2.383,30.824,30.824,0,0,1,3.553-.3H72.213a5.181,5.181,0,0,1,5.056,3.888c.368.488.587,4.078.587,4.737V163.857c0,.658-.218,4.249-.586,4.736a5.181,5.181,0,0,1-5.057,3.89H54.652A5.177,5.177,0,0,1,49.6,168.6c-.37-.489-.59-4.092-.59-4.752V47.715c0-.319-.74-.577-1.059-.577H29.982c-.438,0-3.134-.145-3.515-.255-3.01-.873-5.057-3.726-4.027-6.58-.05-.586,1.881-4.126,2.23-4.693Z" transform="translate(-18.376 -17.18)" fill="silver"/>
            <path id="Trazado_601513" data-name="Trazado 601513" d="M31.48,21.441a5.975,5.975,0,0,1,3.544-2.347c.368-.114,3.168-.263,3.566-.263H71.077a5.059,5.059,0,0,1,4.974,3.952c.322.427.513,4.171.513,4.747V162.765c0,.576-.19,4.32-.512,4.747a5.06,5.06,0,0,1-4.975,3.954H53.206a5.057,5.057,0,0,1-4.972-3.95c-.324-.428-.516-4.185-.516-4.762V46.742c0-.344-.7-.622-1.043-.622H28.591c-.384,0-3.208-.13-3.542-.223-3.053-.854-5.12-3.733-3.992-6.6-.044-.512,2.01-4.2,2.315-4.7Z" transform="translate(-17.418 -16.497)" fill="#bbb"/>
            <path id="Trazado_601514" data-name="Trazado 601514" d="M30.23,20.349A5.893,5.893,0,0,1,33.8,18.039c.316-.095,3.238-.226,3.579-.226H69.935a4.946,4.946,0,0,1,4.893,4.017,26.589,26.589,0,0,1,.44,4.757V161.673a26.627,26.627,0,0,1-.439,4.757,4.947,4.947,0,0,1-4.894,4.018H51.755a4.944,4.944,0,0,1-4.891-4.014,26.634,26.634,0,0,1-.442-4.773V45.769c0-.369-.66-.667-1.028-.667H27.2c-.329,0-3.282-.114-3.569-.191-3.1-.835-5.182-3.74-3.958-6.614a34.1,34.1,0,0,1,2.4-4.7Z" transform="translate(-16.456 -15.812)" fill="#b6b6b6"/>
            <path id="Trazado_601515" data-name="Trazado 601515" d="M28.976,19.259a4.823,4.823,0,0,1,3.6-2.275,34.955,34.955,0,0,1,3.592-.188h32.62A4.84,4.84,0,0,1,73.6,20.878a32.1,32.1,0,0,1,.367,4.767V160.581a32.2,32.2,0,0,1-.366,4.768,4.841,4.841,0,0,1-4.813,4.083H50.3a4.838,4.838,0,0,1-4.81-4.08,32.182,32.182,0,0,1-.368-4.783V44.8c0-.393-.619-.711-1.012-.711H25.8c-.274,0-3.356-.1-3.6-.16-3.139-.816-5.245-3.746-3.923-6.63a41.752,41.752,0,0,1,2.486-4.706Z" transform="translate(-15.49 -15.129)" fill="#b1b1b1"/>
            <path id="Trazado_601516" data-name="Trazado 601516" d="M27.7,18.168a4.728,4.728,0,0,1,3.633-2.239c.2-.1,3.377-.15,3.6-.15H67.622a4.741,4.741,0,0,1,4.73,4.146,40.467,40.467,0,0,1,.293,4.777V159.489a40.567,40.567,0,0,1-.293,4.778,4.741,4.741,0,0,1-4.731,4.147h-18.8a4.739,4.739,0,0,1-4.729-4.145,40.538,40.538,0,0,1-.295-4.794V43.823c0-.417-.579-.755-1-.755H24.374c-.219,0-3.442-.046-3.623-.128a4.672,4.672,0,0,1-3.889-6.647,53.529,53.529,0,0,1,2.571-4.71Z" transform="translate(-14.5 -14.445)" fill="#acacac"/>
            <path id="Trazado_601517" data-name="Trazado 601517" d="M26.437,17.077a4.639,4.639,0,0,1,3.662-2.2c.148-.073,3.447-.113,3.618-.113H66.471a4.648,4.648,0,0,1,4.649,4.211c.138.183.22,4.54.22,4.787V158.4c0,.247-.082,4.606-.219,4.789a4.648,4.648,0,0,1-4.649,4.211H47.363a4.647,4.647,0,0,1-4.648-4.21c-.139-.183-.221-4.557-.221-4.8V42.851c0-.442-.539-.8-.98-.8H22.969c-.165,0-3.514-.035-3.65-.1a4.6,4.6,0,0,1-3.854-6.664c-.019-.22,2.525-4.5,2.656-4.714Z" transform="translate(-13.528 -13.762)" fill="#a8a8a8"/>
            <path id="Trazado_601518" data-name="Trazado 601518" d="M25.175,15.987a4.556,4.556,0,0,1,3.692-2.167c.1-.049,3.517-.075,3.631-.075H65.318a4.561,4.561,0,0,1,4.568,4.275c.092.122.147,4.633.147,4.8V157.305c0,.165-.054,4.677-.146,4.8a4.561,4.561,0,0,1-4.568,4.276H45.9a4.56,4.56,0,0,1-4.567-4.275c-.092-.122-.147-4.65-.147-4.815V41.878a.955.955,0,0,0-.964-.844H21.562c-.11,0-3.587-.023-3.677-.064a4.528,4.528,0,0,1-3.819-6.681c-.012-.147,2.654-4.577,2.741-4.718Z" transform="translate(-12.554 -13.078)" fill="#a3a3a3"/>
            <path id="Trazado_601519" data-name="Trazado 601519" d="M23.909,14.9a4.478,4.478,0,0,1,3.721-2.131c.05-.024,3.587-.038,3.644-.038H64.162a4.48,4.48,0,0,1,4.486,4.34c.046.061.073,4.725.073,4.808V156.213c0,.082-.027,4.748-.073,4.809a4.48,4.48,0,0,1-4.486,4.34H44.435a4.48,4.48,0,0,1-4.486-4.339c-.046-.061-.073-4.743-.073-4.826V40.9a.942.942,0,0,0-.949-.888H20.152c-.055,0-3.659-.011-3.7-.032a4.464,4.464,0,0,1-3.785-6.7c-.006-.073,2.783-4.652,2.826-4.723Z" transform="translate(-11.576 -12.394)" fill="#9e9e9e"/>
            <path id="Trazado_601520" data-name="Trazado 601520" d="M26.392,11.711H63a4.4,4.4,0,0,1,4.4,4.4V159.942a4.4,4.4,0,0,1-4.4,4.4H42.967a4.4,4.4,0,0,1-4.4-4.4V39.933A.932.932,0,0,0,37.63,39H15.009a4.4,4.4,0,0,1-3.75-6.715l11.383-18.48a4.4,4.4,0,0,1,3.75-2.094" transform="translate(-10.598 -11.711)" fill="#999"/>
          </g>
        </g>
      </g>
      <path id="Trazado_601521" data-name="Trazado 601521" d="M16.81,11.711H60.286V164.346H31.44V39H0Z" transform="translate(180 11699.646)" fill="#eaeff3"/>
      <path id="Trazado_601618" data-name="Trazado 601618" d="M647.386,167.373l-16.055,25.86,16.055,25.859,18.856-25.859Z" transform="translate(-275.276 11595.022)" fill="#eaeff3"/>
      <text id="Permite_a_las_empresas_mantenerse_competitivas." data-name="Permite a las empresas mantenerse competitivas." transform="translate(260.527 11741.408)" fill="#12263f" font-size="16" font-family="Roboto-Regular, Roboto"><tspan x="0" y="17">Permite a las </tspan><tspan x="0" y="41">empresas </tspan><tspan x="0" y="65">mantenerse </tspan><tspan x="0" y="89">competitivas.</tspan></text>
    </g>
  </g>
</svg>
